<svg xmlns="http://www.w3.org/2000/svg" viewBox="0 0 1024 1024"><g fill="none" stroke-width="2"><path stroke="#121011" d="M620.99 849.45q-11.42.47-22.89.65-1.44.03-4.08.7c-2.69.69-5.81.17-7.85.18q-23.75.1-30.85-.02-1.48-.03-1.82-1.42" vector-effect="non-scaling-stroke"/><path stroke="#2e5c5a" d="M553.5 849.54q16.51-.58 32.97-.05c4.96.16 9.47-.61 11.44-5.19q.97-2.22.85-8.71-.4-22.39-.5-44.81c-.03-7.73-4.3-9.61-11.57-9.44q-36.23.85-72.46 1.94c-12.07.37-14.1-10.45-3.99-16.09q37.44-20.87 74.83-41.81c9.8-5.48 15.37-8.32 17.19-18.82q.85-4.92.77-8.56-.57-25.76-.82-51.5c-.05-4.89-.64-7.66-5.95-8.04q-89.63-6.55-179.26-12.97c-7.36-.52-9.64 3.76-8.94 10.4q2.77 26.46 5.23 52.97c.89 9.56 5.08 9.25 13.81 9.01q61.45-1.62 122.89-3.41c10.51-.3 10.55 10.64 1.52 13.83q-59.75 21.1-119.43 42.45c-12.85 4.6-12.02 15.82-11.47 27.07q1.55 31.9 3.2 63.79c.33 6.33 3.54 8.35 9.78 8.32q41.84-.16 83.64-.46" vector-effect="non-scaling-stroke"/><path stroke="#121011" d="M517.23 849.46q-6.17 3.22-13.05 2.93-14.95-.62-29.88-.16c-23.93.73-47.86.92-71.78 1.19" vector-effect="non-scaling-stroke"/><path stroke="#3f6b69" d="m553.5 849.54-36.27-.08" vector-effect="non-scaling-stroke"/><path stroke="#792613" d="M452.19 383.06c11.41 8.63 24.76 8.28 38.5 7.83q49.31-1.61 98.62-3.05c4.77-.14 15.92 1.36 14.41-7.09q-3.71-20.73-7.18-41.53-.47-2.82-3.3-3.27-2.32-.37-4.92-.21-30.74 1.85-61.47 3.78c-10.41.65-24.21-2.16-23.53-15.76q6.75-136.62 13.55-273.24c.13-2.66-.97-4.87-3.67-5.21q-2.49-.32-4.7-.06l-50.74 5.96a1.01 1.01 0 0 0-.87.81c-3.97 21.49-4.4 44.48-5 66.3q-3.35 122.39-6.72 244.77c-.24 8.79.28 14.88 7.02 19.97" vector-effect="non-scaling-stroke"/><path stroke="#2e5c5a" d="M521.95 311.09c3.65 11.33 20.93 14.19 30.7 13.89 11.92-.37 23.84-.2 35.77-.25 9.72-.04 23.17-.82 34.08-.44 4.01.13 5.89-1.48 5.86-5.62q-.17-23.73-.79-47.47c-.08-2.8-1.78-4.3-4.39-4.39-8.61-.32-18.37.7-27.67.13-6.37-.4-16.06-3.54-15.27-11.69q9.1-94.68 18.16-189.36c.25-2.61 0-3.89-2.69-4.48q-2.29-.49-4.62-.72-23.98-2.28-49.51-4.59c-3.17-.29-5.42-.68-7.44 2.14a.99.96-26.9 0 0-.18.53q-6.31 122.54-12.52 245.06-.25 4.92.51 7.26" vector-effect="non-scaling-stroke"/><path stroke="#792613" d="M215.93 369.98c70.02 3.22 140.05 6.52 210.07 9.76 4.05.18 5.99-2.74 6.14-6.67q1.09-27.68 2.24-55.38c.32-7.6-7.63-6.26-12.7-5.9q-69.96 4.96-139.94 9.47c-8.69.56-23.07-2.5-21.9-13.69q9.73-93.17 19.52-186.33c.21-1.99.12-4 .15-6.04a1.01 1 20.7 0 0-.36-.79c-2.82-2.34-5.64-2.37-8.93-.5q-24.34 13.75-48.71 27.48a.97.96 30.5 0 1-.52.13c-3.76-.1-6.16 1.24-7.02 5.14q-21.18 95.88-42.34 191.76-.67 3.03-1 6.09c-2.61 24.13 29.64 24.75 45.3 25.47m426.14-67.55c2.05 22.89 22.33 40.17 44.69 39.68q60.28-1.3 182.97-6.55a.99.96-63.1 0 0 .53-.18q3.96-2.75 3.75-7.41-.23-5.16-3.49-31.81-.59-4.76-1.88-7.6c-1.88-4.13-5.3-3.13-9.66-2.37Q837 290 816.5 291.78q-5.93.51-12.61-.41a1 .99 86.4 0 1-.82-.73q-.91-3.38-1.06-6.89c-1.39-33.83.26-68.1 1.51-101.93.35-9.45 1.4-20.63-.83-29.26q-5.19-20.12-24.75-28.31c-11.15-4.68-20.82-3.7-36.05-2.83q-40.79 2.31-81.57 4.86c-30.99 1.94-49.52 30.88-51.27 59.54q-.36 5.94.3 20.29c.29 6.37 3.35 9.53 9.89 9.39q12.76-.26 25.51-.78c5.98-.25 9.88-2.84 9.75-9.03q-.2-9.23.21-18.43c.51-11.54 9.01-12.36 18.29-12.67q33.36-1.14 39.93-.81c22.11 1.09 25.56 17.1 24.57 35.62-.37 7.06-4.13 10.75-11.33 10.78q-16.72.08-35.31 1.18c-21.85 1.3-41.85 11.76-47.62 33.94q-1.49 5.74-1.55 17.06-.11 24.61.38 30.07" vector-effect="non-scaling-stroke"/><path stroke="#2e5c5a" d="M280.66 266.42c-1.89 18.36 4.45 33.81 24.43 37.2q4.83.82 15.79-.6 40.09-5.2 80.18-10.33c16.49-2.1 32.65-10.42 36.16-27.74q.59-2.94.83-19.95.47-33.51.46-67.03c0-10.42-2.19-18.38-10.34-24.38-13.2-9.71-27.42-8.77-42.93-10.12q-19.73-1.72-39.45-3.41-13.08-1.12-18.58-.55c-13.4 1.37-28.51 6.75-34.26 19.84q-2 4.53-3.28 17.58-4.4 44.76-9.01 89.49" vector-effect="non-scaling-stroke"/><path stroke="#792613" d="M721.26 473.67c-3.12 26.12 5.7 60.64 38.26 62.28q2.53.13 15.98-.13 59.78-1.13 119.56-2.17c26.48-.46 44.09-22.64 46.47-47.35q.59-6.13-.98-19.93-3.2-27.95-6.45-55.9c-.61-5.27-1.08-14.27-2.46-20.89-3.31-15.99-14.51-32.78-31.08-37.18q-5.27-1.4-18.21-1.06-68.42 1.8-112.34 2.68c-19.49.39-30.25 13.23-35.44 30.8q-2.88 9.74-3.59 14.43-3.9 25.87-9.72 74.42" vector-effect="non-scaling-stroke"/><path stroke="#2e5c5a" d="M635.75 575.74c-.14 16.81 22.76 19.5 34.75 19.44q91.53-.49 183.06-1.27 4.84-.05 7.88-2.05a1.02 1.01-17.7 0 0 .45-.86l-.81-42.57a1.02 1.01-63.1 0 0-.17-.53q-2.13-3.23-6.41-2.94-35.97 2.46-129.07 8.5c-9.27.6-31.16 2.26-29.51-13.03q9.3-86.56 18.8-173.11a1.03 1 33.7 0 0-.14-.64q-1.57-2.56-5.59-2.86-31.25-2.29-62.5-4.47-2.84-.2-6.07.03-3.31.24-3.33 3.56-.44 106.07-1.34 212.8m-407.62-7.59c28.37 1.29 54.17 2.94 81.23 4.26 18.87.92 59.23 1.74 66.64-21.9q1.42-4.51 1.2-15.13-1.06-51.9-2.14-103.8c-.18-8.7-.1-14.92-4.09-20.79-12.73-18.7-40.31-22.35-61-23.17-28.2-1.11-56.38-2.92-84.56-4.48-10.6-.59-23.3.35-31.66.07q-55.87-1.89-111.75-3.46c-3.59-.11-7.25 1.7-7.79 5.24q-3.02 19.75-5.73 39.54-.51 3.68 1.11 6.4c2.47 4.16 5.5 3.38 9.62 2.91q29.52-3.37 59.03-6.88c4.54-.54 9.1 2.54 8.95 7.47q-3.1 100.82-5.96 201.64c-.2 7.12 2.3 12.24 8.84 15.02 11.76 4.99 23.3 11.42 34.56 17.47 5.44 2.91 15.05 2.33 14.9-6.06q-.8-41.98-1.48-83.98c-.22-13.17 22.26-10.72 30.08-10.37" vector-effect="non-scaling-stroke"/><path stroke="#792613" d="M384.67 484.93c-.01 5.28 4.55 7.72 9.15 8.27q5.38.65 30.67-.57 4.26-.2 8.36-3.18 1.98-1.44 1.91-3.88c-.25-8.65-.28-15.98 7.77-21.26q6.6-4.34 14.47-5.36c13.04-1.68 26.76-1.41 39.9-1.42 13.43-.01 34.45-.2 40.47 14.12 1.83 4.37 1.36 9.6 1.37 14.86.03 17.4-24.42 23.01-37.99 23.06q-22.82.08-45.62.8c-25.88.82-53.5 7.25-53.13 39.63q.11 9.42.37 18.81.4 14.78 1.33 18.76c3.93 16.73 19.4 25.22 35.8 26.1q59.51 3.2 119.01 6.3c21.92 1.15 52.05-5.09 65.54-24.29 4.47-6.37 4.99-12.4 4.32-20q-4.51-51.17-8.98-102.34c-1.39-15.86-2.06-24.82-9.29-36.41q-16.55-26.51-48.34-26.8c-13.77-.12-40.38.96-60.82 1.12q-42.7.33-51.67 1.23c-27.05 2.74-55.56 19.92-63.29 47.3-2.11 7.5-1.3 17.09-1.31 25.15M272.06 802.47q39.12.58 78.25.49 8.02-.02 11.97-.59c29.75-4.33 44.23-27.03 42.33-56.06q-3.69-56.65-7.56-113.28c-1.62-23.75-13.97-41.96-38.14-46.57q-8.1-1.54-19.85-1.32-33.07.61-66.12 1.59c-21.57.63-44.98 10.48-52.08 32.2q-1.71 5.23-2.34 15.87-3.22 54.55-6.52 109.1-.69 11.46-.19 16.2c2.42 22.92 17.42 39.1 40.53 41.86q2.08.25 19.72.51m345.09-138.31q4.21 3.34 8.85 3.24 15.97-.35 31.93-.77c10.5-.28 7.28-7.01 8.47-13.4 1.84-9.81 13.58-10.02 22.35-10.45 20.88-1.02 45.61-2.36 42.99 27.23-1.01 11.37-17.37 16.1-26.74 16.26q-16.91.29-33.81.52c-19.8.28-54.56 7-53.48 34.22q.39 9.9.49 16.21.09 6.02 1.22 9.47c5.1 15.57 23.18 25.69 38.35 27.71q2.93.39 19.99.68 33.71.57 67.43.92 9.86.1 15.51-1.17c18.93-4.25 37.61-19.57 38.56-40.38q1.78-39.26 3.51-78.53c.53-12.02 1.61-19.15-4.57-26.87-10.6-13.23-28.94-18.04-45.76-17.14q-43.76 2.34-87.51 4.79c-16.26.91-40.08 6.71-46.88 23.97-2.42 6.13-1.32 16.11-1.27 22.71a1.01 1-70.7 0 0 .37.78" vector-effect="non-scaling-stroke"/><path stroke="#f8a592" d="M482.67 366.75q2.21 1.75 5.03 1.97 3.2.25 7.3.19 40.41-.62 80.87-.37c4.9.03 7.35-3.65 2.86-7.39a1 1 0 0 0-.65-.24q-41.09.37-82.17.36c-4.05 0-6.66.89-10.56-1.35a1 .98-80.5 0 1-.49-.7c-.46-2.88-.9-5.73-.81-8.71q4.09-139.71 7.7-279.43c.08-3.18-.48-4.28-3.78-4.34q-2.53-.05-2.61 2.49-3.8 137.51-7.61 275.49c-.2 7.2-1.55 16.89 4.92 22.03" vector-effect="non-scaling-stroke"/><path stroke="#addbd9" d="M555.7 289.35q-1.29-4-.85-9.78 7.58-99.74 15.06-199.49c.23-3.08-.18-7.33-4.73-4.47a.99.99 0 0 0-.45.66q-.45 2.32-.73 5.98-7.43 98.04-14.78 196.09c-.7 9.34-.34 19.98 11.79 19.14q24.99-1.74 49.99-3.89 5-.43 2.38-5.71a1 1 0 0 0-.97-.55q-25.86 1.83-50.91 3.64-3.24.23-5.37-1.08a.98.96 7.1 0 1-.43-.54" vector-effect="non-scaling-stroke"/><path stroke="#f8a592" d="M249.34 150.3c-4.01-2.04-6.68-.33-7.39 3.85q-14.88 87.94-29.47 175.94c-3.59 21.62 4.17 20.77 21.89 20.12q90.84-3.39 181.7-6.84a1.01 1 18.9 0 0 .71-.34q2.07-2.38 1.54-5.65a1 1 0 0 0-.96-.83q-6.18-.17-12.3.05-85.8 3.15-171.6 6.45c-4.61.18-12.84 1.71-13.46-5.22q-.52-5.84-.23-7.52 15.05-89.43 30.1-178.95a1.01 1.01 0 0 0-.53-1.06m524.92 98.13q-.22 2.34-1.75.56c-7.25-8.44-13.09-11.43-24.25-11.11q-23.46.65-46.93 1.48c-12.11.42-20.06 1.54-27 10.74-9.5 12.61-8.09 25.88-7.66 40.81q.27 9.15 1.46 13.41c2.77 9.91 9.29 19.04 19.36 22.24q4.26 1.36 13.64 1.08c21.06-.64 42.62-.58 63.56-2.93q44.25-4.98 87.96-10.27 2.6-.31 2.62-2.93c.05-5.26-3.42-4.36-7.43-3.94q-35.9 3.82-73.51 7.9-2.16.24-.93-1.56 4.52-6.59 6.07-14.62.81-4.21.62-16.12-.24-14.68.19-29.36 1.26-42.89.26-85.83-.39-16.31-14.34-20.72-3.86-1.22-10.72-1.04-32.21.87-64.42 2.04-41.87 1.52-50.82 2.73c-18.42 2.47-18.72 31.97-18.12 45.11.18 4.13 3.44 5.61 6.27 1.39a.98.98 0 0 0 .17-.64c-.76-9.24-.42-31.96 8.27-37.06q2.26-1.33 7.08-1.6 50.27-2.79 100.59-4.11c12.63-.33 29.81-3.14 29.94 14.91.17 25.59.25 51.1-.07 76.69q-.02 1.83-.11 2.75" vector-effect="non-scaling-stroke"/><path stroke="#addbd9" d="M300.64 248.76c-.96 16.42 2.63 40.46 25.19 38.08q51.51-5.42 70.48-7.55c5.62-.63 9.62-1.29 13.83-5.23 9.66-9.05 9.89-17.74 10.95-32.45q1.29-17.93 2.49-35.85c1.04-15.61 2.91-37.1-17.37-41.34q-2.55-.53-11.21-.79-33.49-1.02-67-1.52c-10.46-.15-18.26 8.01-21.57 17.08q-1.61 4.44-2.36 15.47-1.84 27.04-3.43 54.1" vector-effect="non-scaling-stroke"/><path stroke="#f8a592" d="M672.83 293.3c.17 12.47 8.5 27.3 22.67 26.94q12.99-.32 56.44-1.8c14.48-.5 21.91-14.9 21.94-27.96.02-10.37.84-22.5-3.02-31.22-3.06-6.91-10.68-13.84-18.11-13.86q-12.04-.03-46.87 1.26-13.35.49-15.33.97c-11.99 2.9-18.04 16.14-17.93 27.63q.09 9.02.21 18.04" vector-effect="non-scaling-stroke"/><path stroke="#addbd9" d="M307.71 246.51c-.93 14.31-.67 35.62 20.37 33.3q34.07-3.76 68.13-7.55c8.59-.96 14.02-8.05 16.04-15.77q.68-2.6 1.44-14.06 1.56-23.5 3.24-46.99c.64-8.93-1.29-19.24-10-23.17q-3.68-1.66-14.21-1.88-29.18-.61-58.38-1.49-7.22-.21-10.55 1.06c-8.14 3.11-12.36 13.03-12.81 21.29q-1.49 27.64-3.27 55.26" vector-effect="non-scaling-stroke"/><path stroke="#2e5c5a" d="M349.16 247.99c.25 13.77 15.71 14.31 25.52 14.25 12.36-.08 28.37-1.72 29.74-17.59q1.64-18.96 3.38-37.91.75-8.15 0-10.96c-4.25-15.76-31.35-11.78-43.03-10.62-9.1.9-16.52 6.41-16.38 16.33q.34 23.28.77 46.5" vector-effect="non-scaling-stroke"/><path stroke="#792613" d="M694.84 289.15c3.6 15.9 19.42 18.08 32.77 17.92 7.88-.09 17.36-.09 24.12-2.95 12.84-5.43 17.28-19.27 14.23-32.52-3.32-14.45-13.9-18.4-27.55-18.51-10.14-.07-23.15-.3-31.21 3.62-12.29 5.98-15.27 19.64-12.36 32.44" vector-effect="non-scaling-stroke"/><path stroke="#f8a592" d="M737.12 458.02c-5.78 26.48 13.95 45.52 39.39 45.18q41.84-.56 83.68-1.24 8.88-.14 13.99-.81c23.56-3.07 38.37-24.36 32.44-47.54-3.7-14.44-7.8-28.72-10.99-43.29-3.79-17.32-14.55-33.24-32.97-35.86q-3.09-.44-19.97-.1-24.22.48-48.46 1.1-14.31.36-19.81 2.04c-15.29 4.67-24.24 18.96-27.42 34.25q-4.82 23.16-9.88 46.27" vector-effect="non-scaling-stroke"/><path stroke="#addbd9" d="M670.32 561.25c-.85 16.47 6.71 15.93 20.12 15.41q73.69-2.83 147.37-5.83 3.4-.13 5.3-.56a1.01 1.01 0 0 0 .73-.64q1.37-3.81-3.09-3.65-79.38 2.98-158.74 6.13c-7.59.3-7.17-5.82-6.87-11.29q4.62-86.29 9.16-172.59c.14-2.73-.46-5.93-4.19-3.48a1 .99-13.7 0 0-.45.73q-.17 1.58-.41 6.02-4.56 84.87-8.93 169.75" vector-effect="non-scaling-stroke"/><path stroke="#f8a592" d="M743.15 471.03c2.08 16.63 19.14 24.77 34.61 24.48q45.15-.83 90.3-1.54c16.55-.26 32.22-10.97 33-28.14q.23-5.3-2.82-16.79c-3.39-12.76-7.02-25.37-9.96-38.24-2.72-11.89-10.14-23.81-22.2-27.56q-4.47-1.39-13.78-1.24-30.14.48-60.26 1.32-12.99.36-17.74 2.1c-11.92 4.35-18.4 15.64-20.88 27.66q-4.19 20.33-8.35 40.65-2.53 12.38-1.92 17.3" vector-effect="non-scaling-stroke"/><path stroke="#addbd9" d="M350.06 432.51c.22-22.33-27.74-25.9-44.06-26.49-71.82-2.59-143.65-5.39-215.48-7.76q-4.2-.14-4.29 3.99-.06 2.64 3.02 2.76l78.06 3.14a1 1 0 0 1 .96 1.06q-5.83 103.8-11.53 206.79-.39 6.94 7.07 4.14a1.01 1.01 0 0 0 .65-.88l3.59-62.2a1.02 1.01.9 0 1 .98-.94c6.1-.15 13.2.34 18.27.35 44.64.09 88.83.82 134-.62 13.94-.45 25.33-8.17 25.99-22.78q2.28-50.27 2.77-100.56" vector-effect="non-scaling-stroke"/><path stroke="#792613" d="M782.78 430.25c-.19 14.84-1.3 46.97 21.72 46.47q21.1-.47 42.18-1.31c10.08-.41 23.15-3.69 25.96-14.35q.7-2.65.61-13.13c-.13-16.01.93-39.95-16.14-46.32q-3.58-1.34-11.35-1.12-19.61.56-39.24 1.07-6.46.17-9.86 1.6c-10.5 4.44-13.75 16.35-13.88 27.09" vector-effect="non-scaling-stroke"/><path stroke="#addbd9" d="M342.36 433.76c.4-19.71-26.39-20.62-39.45-21.08q-62.79-2.21-125.73-4.16a1 .99-87.6 0 0-1.02.95l-7.68 138.93a1 1 0 0 0 .99 1.06q57.06.45 135.84.19c13.51-.05 33.39 1.65 34.18-17.9q1.82-45.24 2.87-97.99" vector-effect="non-scaling-stroke"/><path stroke="#2e5c5a" d="M237.82 519.85c.27 12.85 19.73 17.31 29.68 17.41q8.27.08 16.53-.03c12.19-.18 36.11.46 41.27-13.91q.9-2.49.78-7.87-.67-30.15-1.23-60.33-.12-6.51-1.58-9.53c-4.48-9.27-18.65-11.68-27.77-11.54q-14.9.24-29.73.67c-11.35.34-29.6 5.49-29.31 19.52q.67 32.8 1.36 65.61" vector-effect="non-scaling-stroke"/><path stroke="#f8a592" d="M576.12 529.82q-7.03-4.77-15.3-6.57-5.18-1.14-17.69-.95-37.85.57-75.69 1.35c-14.94.31-30.22 8.27-35.29 22.91-2.38 6.87-1.44 16.49-1.28 24.12q.33 14.71 11.77 23.68c13.86 10.87 30.17 8.66 46.68 9.14q31.84.93 63.68 1.46c22.67.37 36.51-13.61 35.74-36.26-.24-7.01-.1-13.85-.82-20.89-3.19-31.12-6.15-62.44-10.69-93.39-1.88-12.88-14.17-19.69-26.23-19.76q-60.37-.34-120.69 1.89c-22.3.83-31.78 21.92-32.56 41.37q-.1 2.44 2.26 3.06c4.88 1.31 5.76-1.68 6.16-5.78 1.4-14.4 8.26-31.07 24.83-31.7q52.25-1.97 109.95-1.74c17.44.07 26.55-.09 29.05 19.74q4.24 33.64 7.67 67.39.22 2.14-1.55.93" vector-effect="non-scaling-stroke"/><path stroke="#f8a592" d="M439.35 580.26c5.49 12.39 18.08 15.84 30.52 16.2q34.28.98 68.56 1.78 14.65.35 19.25-.08c25.32-2.32 24.97-23.94 23.53-43.56q-.46-6.31-2.24-9.9c-4.98-10.02-17.05-15.51-27.72-15.31q-40.5.8-81 1.25c-14.92.16-32.68 7.44-32.96 25.1-.13 8.1-.92 17.78 2.06 24.52" vector-effect="non-scaling-stroke"/><path stroke="#792613" d="M478.92 560.08c-1.06 18.76 21.71 23.75 35.57 23.8q18.04.07 35.98-1.15c12.04-.81 16.41-9.4 16.5-20.1.1-11.95-.42-23.17-15.22-24.67-10.55-1.07-24.04-.28-37.04.02-13.22.3-34.82 4.97-35.79 22.1" vector-effect="non-scaling-stroke"/><path stroke="#f8a592" d="M257 776.7q2.31.57 4.69.61 41.88.66 85.61.69c10.89.01 20.26-9.96 24.27-19.23 4.89-11.34 6.45-24.26 6.56-36.52.22-22.52.32-45.06-2.63-67.75-2.08-16.01-7.94-34.99-28-34.79q-18.25.18-79.5 1.99-6.31.18-9.68 1.61c-9.58 4.08-14.78 14.44-17.47 23.97-5.35 18.96-7.42 37.22-9.24 57.65q-1.03 11.59-.77 19.68c.64 19.72 2.15 46.2 26.16 52.09m509.5-72.26q-8.05-7.87-18.25-9.19c-7.74-1-20.24-.07-25.96.02q-35.19.52-42.47.85-12.02.54-21.26 5.71c-12.11 6.76-11.63 19.66-11.14 31.81.49 11.95 9.99 21.43 20.69 24.56q5.31 1.55 17.09 1.37 18.19-.28 58.6-1.24c15.81-.38 31.29-10.47 31.37-27.32q.16-35.26-.67-70.49c-.36-15.13-1.49-26.95-16.41-31.85q-4.28-1.41-12.45-1.4-40.96.07-81.88 1.61-14.84.55-18.28 1.1c-12.12 1.92-14.59 13.75-14.64 24.03q-.03 6.17 6.07 4.09a1.01 1.01 0 0 0 .68-.97q-.13-6.65 1.66-13.38c1.61-6.09 4.76-7.79 11.1-8.04 28.05-1.07 60.66-.33 91.09-2.06q9.59-.54 13.55.62 11.6 3.41 12.26 17.75 1.02 22.56.95 51.7-.01 2.37-1.7.72" vector-effect="non-scaling-stroke"/><path stroke="#f8a592" d="M239.75 748.75c3.5 16.62 12.84 21.77 29 21.71q14.51-.06 77.38.34c20.9.13 25.2-31.93 25.33-46.3q.23-25.1-.5-50.19c-.36-12.56-1.27-42.03-16.03-47.27q-3.44-1.23-13.48-.98-37.35.91-74.71 1.75c-19.64.44-23.35 33.1-25.22 47.19-3.15 23.67-6.57 50.89-1.77 73.75" vector-effect="non-scaling-stroke"/><path stroke="#addbd9" d="M426.88 661.98c5.68.52 13.07.64 17.11.83q92.66 4.31 112.58 5.08c4.11.16 9.06.57 11.72 3.79 3.06 3.71 2.54 16.44 2.41 23.66-.15 8.81.6 13.28-7.63 16.74q-54.76 23.05-109.59 45.98c-10.45 4.37-16.67 9.85-16.71 21.68-.02 5.63-.31 11.14-.59 16.75-.42 8.36.17 18.5 11.06 18.36q62.29-.81 124.57-1.67 3.83-.06 6.25-.19a1.01 1-87.5 0 0 .93-.86c.53-3.6.56-6.01-3.74-5.74q-3.93.25-10.25.28-33.85.18-99.63 1.1c-5.52.07-12.81.38-19.3.07q-3.11-.15-3.8-3.09-.58-2.47-.48-5.01.39-9.02.5-19.06.12-10.64 9.2-14.44 57.28-23.94 114.56-47.86 9.1-3.8 9.94-12.86.94-10.1-.12-26.87c-.6-9.68-4.32-16.9-14.88-17.4q-67.33-3.22-135.82-6.12a1.02 1 17.5 0 0-.88.45c-2.13 3.21-1.25 6.04 2.59 6.4" vector-effect="non-scaling-stroke"/><path stroke="#792613" d="M274.75 724.03c-1.18 10.59 1.87 21.11 14.77 20.89q19.38-.32 38.79-1.29c13.62-.67 22.01-4.59 22.05-20.16.06-22.05-.23-40.05-.89-59.96-.39-11.97-7.52-19.36-19.72-19.72q-12.71-.38-26.8.67c-7.57.57-15.74 3.78-19.36 10.9q-1.31 2.59-2.01 8.64-3.48 30.01-6.83 60.03" vector-effect="non-scaling-stroke"/><path stroke="#f8a592" d="M654.32 733.18c.58 10.01 8.72 17.38 18.08 19.63q3.4.82 11.77.63 29.69-.69 59.39-1.07c32.48-.42 33.15-44.76 3.85-50.8-3.2-.66-7.52-.6-10.71-.53q-28.7.59-57.38 1.38-3.66.11-10.27 1.9c-15.47 4.18-15.51 15.42-14.73 28.86" vector-effect="non-scaling-stroke"/><path stroke="#792613" d="M687.29 728.59c1.08 11.5 15.06 15.83 24.73 15.84 13.17.01 31.47 1.58 42.78-5.61 9.09-5.79 9.47-19.59.63-25.53q-7.28-4.89-17.5-5.01-15.69-.2-31.36.71c-11.53.67-20.49 6.78-19.28 19.6" vector-effect="non-scaling-stroke"/><path stroke="#8a3522" d="M357.7 945.8c-.01 3.91 4.73 12.82 9.05 12.98q132.24 5.04 264.5 10.02c7.67.28 9.85-4.86 11.44-11.79 5.23-22.84 11.11-45.47 16.83-68.19q1.56-6.17 1.35-9.4c-.37-5.68-3.09-13.11-10.03-13.15-20.82-.12-41.51.14-62.59.94-15.56.59-42.46-.25-64.93.75-24.16 1.08-41.96 1.26-69.19.72a1.07.95 26.3 0 0-.54.15q-.72.44-1.59.46-38.96 1.15-77.94 1.23c-2.81.01-7.99.26-10.58 2.51-4.22 3.67-5.75 9.68-5.75 14.97q.04 28.92-.03 57.8" vector-effect="non-scaling-stroke"/><path stroke="#8a3522" d="m420.29 887.75-.01 61.63a1 .99 88.4 0 0 1.05 1q4.76-.26 9.58-.3c7.46-.08 12.83-2.97 15.02-10.56 1.53-5.32 1.99-14.45-1.38-19.27q-1.38-1.98-3.69-3.59a1 1 0 0 1-.03-1.62q.93-.7 1.87-1.59c3.58-3.36 4.27-10.88 3.76-15.45" vector-effect="non-scaling-stroke"/><path stroke="#f04b24" d="M446.46 898q.73-4.04-.45-6.42-.94-1.9-2.33-3.5-3.82-4.4-9.67-4.85-6.43-.48-12.88.14a1 .99-3.4 0 0-.9 1.01l.06 3.37" vector-effect="non-scaling-stroke"/><path stroke="#8a3522" d="M446.46 898c-1.01-15.76-13.86-13.27-24.86-13.58a1 .99-85.6 0 0-1.02.88l-.29 2.45m124.44 54.46-11.54.04a1 .99-10.3 0 1-.95-.65q-.17-.48.05-1.1" vector-effect="non-scaling-stroke"/><path stroke="#f04b24" d="m532.29 940.5.42-56.18a1.01 1-89.1 0 0-.97-1.01l-7.92-.23a1 1 0 0 0-1.03 1l.17 65.89a1.01 1 .3 0 0 1 1l21.57.07a.99.99 0 0 0 1-.97l.17-6.65a1 .99-84.7 0 0-.83-1.01l-1.14-.2" vector-effect="non-scaling-stroke"/><path stroke="#8a3522" d="m532.29 940.5-.3-55.06a1 1 0 0 0-1.02-.99l-5.72.07a1 1 0 0 0-.99 1q-.02 30.77-.01 61.57c.01 1.58-1.64 3.13 1.69 3.08q9.11-.15 18.33-.23a1.01 1-86.3 0 0 .98-.87q.49-3.49-.52-6.86m-48.35-21.78q3.58-1.36 4.31 2.06 2.9 13.47 5.48 26.95a1.01 1-5.6 0 0 .99.81h6.71a1 1 0 0 0 .98-1.21l-6.59-30.24a.99.98 63.1 0 1 .3-.94c6.66-6.15 7.41-18.44 3.86-26.32-2.46-5.45-6.26-6.96-11.99-7.14q-5.7-.18-11.46.04a1.01 1-86.5 0 0-.95.85q-.31 1.98-.29 4.71.13 20.28-.05 59.34a1 1 0 0 0 1.02 1l6.12-.12a1 .99 89.7 0 0 .98-1l-.06-27.85a1.01 1.01 0 0 1 .64-.94m-31.6 21.82a.31.31 0 0 1-.31-.31l-.28-22.23a.31.31 0 0 1 .32-.32l10.76.15a.31.31 0 0 0 .32-.32l-.04-7.66a.31.31 0 0 0-.31-.31h-10.69a.31.31 0 0 1-.31-.31l.03-19.04a.31.31 0 0 1 .31-.31l14.01-.13a.31.31 0 0 0 .3-.3l.07-6.35a.31.31 0 0 0-.31-.31h-21.77a.31.31 0 0 0-.31.31l-.05 65.15a.31.31 0 0 0 .31.31l23.24-.07a.31.31 0 0 0 .31-.31l-.08-7.33a.31.31 0 0 0-.31-.31h-15.21m96.95-57.4a.33.33 0 0 0-.33-.33h-7.56a.33.33 0 0 0-.33.33v64.86a.33.33 0 0 0 .33.33h7.56a.33.33 0 0 0 .33-.33v-64.86m19.22 22.76 12.93 41.84a1 1 0 0 0 .9.71l4.42.25a1 .99 1.1 0 0 1.06-1.02q-.76-31.92-.44-63.86a1 1 0 0 0-1-1.01l-5.01-.03a1 1 0 0 0-1 .98q-.4 14.76-.28 29.53 0 .11.19 2.36.05.6.01 1.2-.21 3.32-1.24.16l-10.9-33.49a1.02 1 80.9 0 0-.94-.69l-5.88-.06a1.01 1-89.1 0 0-1.01.99q-.43 31.15-.21 62.3c0 .49-.1.72-.13 1.17a1 .99 1.9 0 0 1 1.06h5.83a1 1 0 0 0 1-1v-40.96a.41.41 0 0 1 .12-.29l.23-.22a.21.21 0 0 1 .35.08m-151.73 4.79c12.72 3.06 12.64-24.04.04-20.74a1.01 1 82.5 0 0-.74.97l-.07 18.79a1.01 1.01 0 0 0 .77.98m.29 30.02q7.5-.02 9.08-4.95c1.97-6.15.46-21.1-9.4-17.91a1.01 1.01 0 0 0-.69.96v20.9a1.01 1 0 0 0 1.01 1" vector-effect="non-scaling-stroke"/><path stroke="#8a3522" d="M502.56 892.44q-2.31-1.3-5.81-.71a1.01 1 85.5 0 0-.83.98l-.23 18.91a1.01 1-82.8 0 0 .76.99c11.77 2.85 11.46-17.16 6.11-20.17" vector-effect="non-scaling-stroke"/></g><path fill="#010101" d="M620.99 849.45q-11.42.47-22.89.65-1.44.03-4.08.7c-2.69.69-5.81.17-7.85.18q-23.75.1-30.85-.02-1.48-.03-1.82-1.42 16.51-.58 32.97-.05c4.96.16 9.47-.61 11.44-5.19q.97-2.22.85-8.71-.4-22.39-.5-44.81c-.03-7.73-4.3-9.61-11.57-9.44q-36.23.85-72.46 1.94c-12.07.37-14.1-10.45-3.99-16.09q37.44-20.87 74.83-41.81c9.8-5.48 15.37-8.32 17.19-18.82q.85-4.92.77-8.56-.57-25.76-.82-51.5c-.05-4.89-.64-7.66-5.95-8.04q-89.63-6.55-179.26-12.97c-7.36-.52-9.64 3.76-8.94 10.4q2.77 26.46 5.23 52.97c.89 9.56 5.08 9.25 13.81 9.01q61.45-1.62 122.89-3.41c10.51-.3 10.55 10.64 1.52 13.83q-59.75 21.1-119.43 42.45c-12.85 4.6-12.02 15.82-11.47 27.07q1.55 31.9 3.2 63.79c.33 6.33 3.54 8.35 9.78 8.32q41.84-.16 83.64-.46-6.17 3.22-13.05 2.93-14.95-.62-29.88-.16c-23.93.73-47.86.92-71.78 1.19-1.88-5.92-1.77-10.81-2.13-16.78q-.68-11.51-1.27-22.78-.09-1.73-1.54-.78-17.59 11.44-38.65 12.84-13.68.91-36.75.25c-19.92-.57-39.78-.46-59.68-.41-46.35.13-76.54-31.75-73.99-77.51q1.49-26.64 3.25-53.26.16-2.41-2.16-1.72c-4.5 1.33-7.68.12-12.06-2.23q-18.27-9.81-36.92-18.83c-13.62-6.6-23.45-20.03-22.61-35.84q.17-3.15.18-3.25c1.48-57.12 3.36-114.24 4.87-171.37q.11-4.03.61-8.53a1.01 1.01 0 0 0-1.12-1.11q-21.46 2.64-43.81 5.14c-17.34 1.94-31.1-10.09-33.44-26.94q-.67-4.81.73-14.09 1.76-11.72 3.47-23.45 2.02-13.9 4.28-18.82c5.64-12.3 17.14-17.81 30.59-17.41q31.3.93 62.91 1.93a1 1 0 0 0 1-1.22c-1.75-7.75-1.42-14.2.43-22.57q20.87-94.51 41.73-189.01c2.64-12 6.48-19.77 17.84-24.24q4.64-1.82 6.63-2.96 24.61-14.07 49.42-27.78 2.27-1.25 4.64-1.38c16.65-.88 31.68 6.89 34.11 24.64q.25 1.82.05 3.54-.14 1.29-.4 2.56-.36 1.72 1.31 1.14 10.41-3.62 21.34-4.82 6.69-.74 17.23.15c18.9 1.58 37.77 3.5 56.71 4.58q13.81.79 28.07 5.87a1 1 0 0 0 1.33-.98q-1.02-29.04 1.37-56.74 1.26-14.7 6.33-28.5c3.11-8.48 8.58-11.74 17.5-12.67q26.59-2.78 53.08-6.04 16.16-1.98 26.62 11.08a1.02 1.01-25.4 0 0 1 .35l3.99-.9q.16-.03.31-.02 29.67 2.71 59.33 5.46c9.84.92 17.3 8.79 23.42 15.92a1.02 1.01 31.1 0 1 .22.86c-.81 3.85.21 7.18-.12 10.77q-2.38 26.08-5.03 52.15-.24 2.45 1.64.87 11.04-9.25 25-13.19 6.24-1.76 17.94-2.49 42.87-2.65 85.75-5.02 13.62-.75 19.97-.06c34.76 3.81 61.74 32.47 60.22 68.17q-2.14 50.35-2.69 100.65a1.01 1-3.3 0 0 1.13 1q17.16-2.2 34.22-5.01c16.69-2.75 30.45 9.9 32.81 25.89q1.16 7.84 4.18 34.31c.18 1.61-.3 3.15-.22 4.82a1.02 1.01-88.7 0 0 .9.95c35.26 3.64 55.75 35.84 58.61 68.73 2.11 24.19 5.32 48.37 8.07 72.51q1.19 10.41.61 16.85c-2.02 22.84-13.22 44.38-31.89 58.03-14.58 10.66-30.26 13.05-47.56 12.17a1 1 0 0 0-1.05 1.03q.38 12.72.58 25.83.16 9.92-1.02 13.9c-2.79 9.42-11.47 16.17-20.81 18.5q-4.06 1.01-13.99 1.07-14.69.09-29.39.01-1.83-.01-.85 1.54 4.85 7.61 6.6 16.27 1.12 5.55.58 17.97-1.76 40.37-3.59 80.74c-.62 13.87-3.78 24.1-12.33 35.27-15.39 20.13-37.23 30.04-62.68 29.98q-65.68-.15-84.98-.99-21.86-.96-39.83-13.15-1.6-1.09-1.56.85.63 28.43.95 57.1c.03 2.25-.67 4.34-1.07 6.64Zm-168.8-466.39c11.41 8.63 24.76 8.28 38.5 7.83q49.31-1.61 98.62-3.05c4.77-.14 15.92 1.36 14.41-7.09q-3.71-20.73-7.18-41.53-.47-2.82-3.3-3.27-2.32-.37-4.92-.21-30.74 1.85-61.47 3.78c-10.41.65-24.21-2.16-23.53-15.76q6.75-136.62 13.55-273.24c.13-2.66-.97-4.87-3.67-5.21q-2.49-.32-4.7-.06l-50.74 5.96a1.01 1.01 0 0 0-.87.81c-3.97 21.49-4.4 44.48-5 66.3q-3.35 122.39-6.72 244.77c-.24 8.79.28 14.88 7.02 19.97Zm69.76-71.97c3.65 11.33 20.93 14.19 30.7 13.89 11.92-.37 23.84-.2 35.77-.25 9.72-.04 23.17-.82 34.08-.44 4.01.13 5.89-1.48 5.86-5.62q-.17-23.73-.79-47.47c-.08-2.8-1.78-4.3-4.39-4.39-8.61-.32-18.37.7-27.67.13-6.37-.4-16.06-3.54-15.27-11.69q9.1-94.68 18.16-189.36c.25-2.61 0-3.89-2.69-4.48q-2.29-.49-4.62-.72-23.98-2.28-49.51-4.59c-3.17-.29-5.42-.68-7.44 2.14a.99.96-26.9 0 0-.18.53q-6.31 122.54-12.52 245.06-.25 4.92.51 7.26Zm-306.02 58.89c70.02 3.22 140.05 6.52 210.07 9.76 4.05.18 5.99-2.74 6.14-6.67q1.09-27.68 2.24-55.38c.32-7.6-7.63-6.26-12.7-5.9q-69.96 4.96-139.94 9.47c-8.69.56-23.07-2.5-21.9-13.69q9.73-93.17 19.52-186.33c.21-1.99.12-4 .15-6.04a1.01 1 20.7 0 0-.36-.79c-2.82-2.34-5.64-2.37-8.93-.5q-24.34 13.75-48.71 27.48a.97.96 30.5 0 1-.52.13c-3.76-.1-6.16 1.24-7.02 5.14q-21.18 95.88-42.34 191.76-.67 3.03-1 6.09c-2.61 24.13 29.64 24.75 45.3 25.47Zm426.14-67.55c2.05 22.89 22.33 40.17 44.69 39.68q60.28-1.3 182.97-6.55a.99.96-63.1 0 0 .53-.18q3.96-2.75 3.75-7.41-.23-5.16-3.49-31.81-.59-4.76-1.88-7.6c-1.88-4.13-5.3-3.13-9.66-2.37Q837 290 816.5 291.78q-5.93.51-12.61-.41a1 .99 86.4 0 1-.82-.73q-.91-3.38-1.06-6.89c-1.39-33.83.26-68.1 1.51-101.93.35-9.45 1.4-20.63-.83-29.26q-5.19-20.12-24.75-28.31c-11.15-4.68-20.82-3.7-36.05-2.83q-40.79 2.31-81.57 4.86c-30.99 1.94-49.52 30.88-51.27 59.54q-.36 5.94.3 20.29c.29 6.37 3.35 9.53 9.89 9.39q12.76-.26 25.51-.78c5.98-.25 9.88-2.84 9.75-9.03q-.2-9.23.21-18.43c.51-11.54 9.01-12.36 18.29-12.67q33.36-1.14 39.93-.81c22.11 1.09 25.56 17.1 24.57 35.62-.37 7.06-4.13 10.75-11.33 10.78q-16.72.08-35.31 1.18c-21.85 1.3-41.85 11.76-47.62 33.94q-1.49 5.74-1.55 17.06-.11 24.61.38 30.07Zm-361.41-36.01c-1.89 18.36 4.45 33.81 24.43 37.2q4.83.82 15.79-.6 40.09-5.2 80.18-10.33c16.49-2.1 32.65-10.42 36.16-27.74q.59-2.94.83-19.95.47-33.51.46-67.03c0-10.42-2.19-18.38-10.34-24.38-13.2-9.71-27.42-8.77-42.93-10.12q-19.73-1.72-39.45-3.41-13.08-1.12-18.58-.55c-13.4 1.37-28.51 6.75-34.26 19.84q-2 4.53-3.28 17.58-4.4 44.76-9.01 89.49Zm440.6 207.25c-3.12 26.12 5.7 60.64 38.26 62.28q2.53.13 15.98-.13 59.78-1.13 119.56-2.17c26.48-.46 44.09-22.64 46.47-47.35q.59-6.13-.98-19.93-3.2-27.95-6.45-55.9c-.61-5.27-1.08-14.27-2.46-20.89-3.31-15.99-14.51-32.78-31.08-37.18q-5.27-1.4-18.21-1.06-68.42 1.8-112.34 2.68c-19.49.39-30.25 13.23-35.44 30.8q-2.88 9.74-3.59 14.43-3.9 25.87-9.72 74.42Zm-85.51 102.07c-.14 16.81 22.76 19.5 34.75 19.44q91.53-.49 183.06-1.27 4.84-.05 7.88-2.05a1.02 1.01-17.7 0 0 .45-.86l-.81-42.57a1.02 1.01-63.1 0 0-.17-.53q-2.13-3.23-6.41-2.94-35.97 2.46-129.07 8.5c-9.27.6-31.16 2.26-29.51-13.03q9.3-86.56 18.8-173.11a1.03 1 33.7 0 0-.14-.64q-1.57-2.56-5.59-2.86-31.25-2.29-62.5-4.47-2.84-.2-6.07.03-3.31.24-3.33 3.56-.44 106.07-1.34 212.8Zm-407.62-7.59c28.37 1.29 54.17 2.94 81.23 4.26 18.87.92 59.23 1.74 66.64-21.9q1.42-4.51 1.2-15.13-1.06-51.9-2.14-103.8c-.18-8.7-.1-14.92-4.09-20.79-12.73-18.7-40.31-22.35-61-23.17-28.2-1.11-56.38-2.92-84.56-4.48-10.6-.59-23.3.35-31.66.07q-55.87-1.89-111.75-3.46c-3.59-.11-7.25 1.7-7.79 5.24q-3.02 19.75-5.73 39.54-.51 3.68 1.11 6.4c2.47 4.16 5.5 3.38 9.62 2.91q29.52-3.37 59.03-6.88c4.54-.54 9.1 2.54 8.95 7.47q-3.1 100.82-5.96 201.64c-.2 7.12 2.3 12.24 8.84 15.02 11.76 4.99 23.3 11.42 34.56 17.47 5.44 2.91 15.05 2.33 14.9-6.06q-.8-41.98-1.48-83.98c-.22-13.17 22.26-10.72 30.08-10.37Zm156.54-83.22c-.01 5.28 4.55 7.72 9.15 8.27q5.38.65 30.67-.57 4.26-.2 8.36-3.18 1.98-1.44 1.91-3.88c-.25-8.65-.28-15.98 7.77-21.26q6.6-4.34 14.47-5.36c13.04-1.68 26.76-1.41 39.9-1.42 13.43-.01 34.45-.2 40.47 14.12 1.83 4.37 1.36 9.6 1.37 14.86.03 17.4-24.42 23.01-37.99 23.06q-22.82.08-45.62.8c-25.88.82-53.5 7.25-53.13 39.63q.11 9.42.37 18.81.4 14.78 1.33 18.76c3.93 16.73 19.4 25.22 35.8 26.1q59.51 3.2 119.01 6.3c21.92 1.15 52.05-5.09 65.54-24.29 4.47-6.37 4.99-12.4 4.32-20q-4.51-51.17-8.98-102.34c-1.39-15.86-2.06-24.82-9.29-36.41q-16.55-26.51-48.34-26.8c-13.77-.12-40.38.96-60.82 1.12q-42.7.33-51.67 1.23c-27.05 2.74-55.56 19.92-63.29 47.3-2.11 7.5-1.3 17.09-1.31 25.15ZM272.06 802.47q39.12.58 78.25.49 8.02-.02 11.97-.59c29.75-4.33 44.23-27.03 42.33-56.06q-3.69-56.65-7.56-113.28c-1.62-23.75-13.97-41.96-38.14-46.57q-8.1-1.54-19.85-1.32-33.07.61-66.12 1.59c-21.57.63-44.98 10.48-52.08 32.2q-1.71 5.23-2.34 15.87-3.22 54.55-6.52 109.1-.69 11.46-.19 16.2c2.42 22.92 17.42 39.1 40.53 41.86q2.08.25 19.72.51Zm345.09-138.31q4.21 3.34 8.85 3.24 15.97-.35 31.93-.77c10.5-.28 7.28-7.01 8.47-13.4 1.84-9.81 13.58-10.02 22.35-10.45 20.88-1.02 45.61-2.36 42.99 27.23-1.01 11.37-17.37 16.1-26.74 16.26q-16.91.29-33.81.52c-19.8.28-54.56 7-53.48 34.22q.39 9.9.49 16.21.09 6.02 1.22 9.47c5.1 15.57 23.18 25.69 38.35 27.71q2.93.39 19.99.68 33.71.57 67.43.92 9.86.1 15.51-1.17c18.93-4.25 37.61-19.57 38.56-40.38q1.78-39.26 3.51-78.53c.53-12.02 1.61-19.15-4.57-26.87-10.6-13.23-28.94-18.04-45.76-17.14q-43.76 2.34-87.51 4.79c-16.26.91-40.08 6.71-46.88 23.97-2.42 6.13-1.32 16.11-1.27 22.71a1.01 1-70.7 0 0 .37.78Z"/><path fill="#f04b24" d="M452.19 383.06c-6.74-5.09-7.26-11.18-7.02-19.97q3.37-122.38 6.72-244.77c.6-21.82 1.03-44.81 5-66.3a1.01 1.01 0 0 1 .87-.81l50.74-5.96q2.21-.26 4.7.06c2.7.34 3.8 2.55 3.67 5.21q-6.8 136.62-13.55 273.24c-.68 13.6 13.12 16.41 23.53 15.76q30.73-1.93 61.47-3.78 2.6-.16 4.92.21 2.83.45 3.3 3.27 3.47 20.8 7.18 41.53c1.51 8.45-9.64 6.95-14.41 7.09q-49.31 1.44-98.62 3.05c-13.74.45-27.09.8-38.5-7.83Zm30.48-16.31q2.21 1.75 5.03 1.97 3.2.25 7.3.19 40.41-.62 80.87-.37c4.9.03 7.35-3.65 2.86-7.39a1 1 0 0 0-.65-.24q-41.09.37-82.17.36c-4.05 0-6.66.89-10.56-1.35a1 .98-80.5 0 1-.49-.7c-.46-2.88-.9-5.73-.81-8.71q4.09-139.71 7.7-279.43c.08-3.18-.48-4.28-3.78-4.34q-2.53-.05-2.61 2.49-3.8 137.51-7.61 275.49c-.2 7.2-1.55 16.89 4.92 22.03Z"/><path fill="#5ab7b2" d="M552.65 324.98c-9.77.3-27.05-2.56-30.7-13.89q-.76-2.34-.51-7.26 6.21-122.52 12.52-245.06a.99.96-26.9 0 1 .18-.53c2.02-2.82 4.27-2.43 7.44-2.14q25.53 2.31 49.51 4.59 2.33.23 4.62.72c2.69.59 2.94 1.87 2.69 4.48q-9.06 94.68-18.16 189.36c-.79 8.15 8.9 11.29 15.27 11.69 9.3.57 19.06-.45 27.67-.13 2.61.09 4.31 1.59 4.39 4.39q.62 23.74.79 47.47c.03 4.14-1.85 5.75-5.86 5.62-10.91-.38-24.36.4-34.08.44-11.93.05-23.85-.12-35.77.25Zm3.05-35.63q-1.29-4-.85-9.78 7.58-99.74 15.06-199.49c.23-3.08-.18-7.33-4.73-4.47a.99.99 0 0 0-.45.66q-.45 2.32-.73 5.98-7.43 98.04-14.78 196.09c-.7 9.34-.34 19.98 11.79 19.14q24.99-1.74 49.99-3.89 5-.43 2.38-5.71a1 1 0 0 0-.97-.55q-25.86 1.83-50.91 3.64-3.24.23-5.37-1.08a.98.96 7.1 0 1-.43-.54Z"/><path fill="#fff" d="M482.67 366.75c-6.47-5.14-5.12-14.83-4.92-22.03q3.81-137.98 7.61-275.49.08-2.54 2.61-2.49c3.3.06 3.86 1.16 3.78 4.34q-3.61 139.72-7.7 279.43c-.09 2.98.35 5.83.81 8.71a1 .98-80.5 0 0 .49.7c3.9 2.24 6.51 1.35 10.56 1.35q41.08.01 82.17-.36a1 1 0 0 1 .65.24c4.49 3.74 2.04 7.42-2.86 7.39q-40.46-.25-80.87.37-4.1.06-7.3-.19-2.82-.22-5.03-1.97Z"/><path fill="#fff" d="M556.13 289.89q2.13 1.31 5.37 1.08 25.05-1.81 50.91-3.64a1 1 0 0 1 .97.55q2.62 5.28-2.38 5.71-25 2.15-49.99 3.89c-12.13.84-12.49-9.8-11.79-19.14q7.35-98.05 14.78-196.09.28-3.66.73-5.98a.99.99 0 0 1 .45-.66c4.55-2.86 4.96 1.39 4.73 4.47q-7.48 99.75-15.06 199.49-.44 5.78.85 9.78a.98.96 7.1 0 0 .43.54Z"/><path fill="#f04b24" d="M426 379.74c-70.02-3.24-140.05-6.54-210.07-9.76-15.66-.72-47.91-1.34-45.3-25.47q.33-3.06 1-6.09 21.16-95.88 42.34-191.76c.86-3.9 3.26-5.24 7.02-5.14a.97.96 30.5 0 0 .52-.13q24.37-13.73 48.71-27.48c3.29-1.87 6.11-1.84 8.93.5a1.01 1 20.7 0 1 .36.79c-.03 2.04.06 4.05-.15 6.04q-9.79 93.16-19.52 186.33c-1.17 11.19 13.21 14.25 21.9 13.69q69.98-4.51 139.94-9.47c5.07-.36 13.02-1.7 12.7 5.9q-1.15 27.7-2.24 55.38c-.15 3.93-2.09 6.85-6.14 6.67ZM249.34 150.3c-4.01-2.04-6.68-.33-7.39 3.85q-14.88 87.94-29.47 175.94c-3.59 21.62 4.17 20.77 21.89 20.12q90.84-3.39 181.7-6.84a1.01 1 18.9 0 0 .71-.34q2.07-2.38 1.54-5.65a1 1 0 0 0-.96-.83q-6.18-.17-12.3.05-85.8 3.15-171.6 6.45c-4.61.18-12.84 1.71-13.46-5.22q-.52-5.84-.23-7.52 15.05-89.43 30.1-178.95a1.01 1.01 0 0 0-.53-1.06Zm437.42 191.81c-22.36.49-42.64-16.79-44.69-39.68q-.49-5.46-.38-30.07.06-11.32 1.55-17.06c5.77-22.18 25.77-32.64 47.62-33.94q18.59-1.1 35.31-1.18c7.2-.03 10.96-3.72 11.33-10.78.99-18.52-2.46-34.53-24.57-35.62q-6.57-.33-39.93.81c-9.28.31-17.78 1.13-18.29 12.67q-.41 9.2-.21 18.43c.13 6.19-3.77 8.78-9.75 9.03q-12.75.52-25.51.78c-6.54.14-9.6-3.02-9.89-9.39q-.66-14.35-.3-20.29c1.75-28.66 20.28-57.6 51.27-59.54q40.78-2.55 81.57-4.86c15.23-.87 24.9-1.85 36.05 2.83q19.56 8.19 24.75 28.31c2.23 8.63 1.18 19.81.83 29.26-1.25 33.83-2.9 68.1-1.51 101.93q.15 3.51 1.06 6.89a1 .99 86.4 0 0 .82.73q6.68.92 12.61.41 20.5-1.78 42.48-5.59c4.36-.76 7.78-1.76 9.66 2.37q1.29 2.84 1.88 7.6 3.26 26.65 3.49 31.81.21 4.66-3.75 7.41a.99.96-63.1 0 1-.53.18q-122.69 5.25-182.97 6.55Zm87.5-93.68q-.22 2.34-1.75.56c-7.25-8.44-13.09-11.43-24.25-11.11q-23.46.65-46.93 1.48c-12.11.42-20.06 1.54-27 10.74-9.5 12.61-8.09 25.88-7.66 40.81q.27 9.15 1.46 13.41c2.77 9.91 9.29 19.04 19.36 22.24q4.26 1.36 13.64 1.08c21.06-.64 42.62-.58 63.56-2.93q44.25-4.98 87.96-10.27 2.6-.31 2.62-2.93c.05-5.26-3.42-4.36-7.43-3.94q-35.9 3.82-73.51 7.9-2.16.24-.93-1.56 4.52-6.59 6.07-14.62.81-4.21.62-16.12-.24-14.68.19-29.36 1.26-42.89.26-85.83-.39-16.31-14.34-20.72-3.86-1.22-10.72-1.04-32.21.87-64.42 2.04-41.87 1.52-50.82 2.73c-18.42 2.47-18.72 31.97-18.12 45.11.18 4.13 3.44 5.61 6.27 1.39a.98.98 0 0 0 .17-.64c-.76-9.24-.42-31.96 8.27-37.06q2.26-1.33 7.08-1.6 50.27-2.79 100.59-4.11c12.63-.33 29.81-3.14 29.94 14.91.17 25.59.25 51.1-.07 76.69q-.02 1.83-.11 2.75Z"/><path fill="#5ab7b2" d="M305.09 303.62c-19.98-3.39-26.32-18.84-24.43-37.2q4.61-44.73 9.01-89.49 1.28-13.05 3.28-17.58c5.75-13.09 20.86-18.47 34.26-19.84q5.5-.57 18.58.55 19.72 1.69 39.45 3.41c15.51 1.35 29.73.41 42.93 10.12 8.15 6 10.34 13.96 10.34 24.38q.01 33.52-.46 67.03-.24 17.01-.83 19.95c-3.51 17.32-19.67 25.64-36.16 27.74q-40.09 5.13-80.18 10.33-10.96 1.42-15.79.6Zm-4.45-54.86c-.96 16.42 2.63 40.46 25.19 38.08q51.51-5.42 70.48-7.55c5.62-.63 9.62-1.29 13.83-5.23 9.66-9.05 9.89-17.74 10.95-32.45q1.29-17.93 2.49-35.85c1.04-15.61 2.91-37.1-17.37-41.34q-2.55-.53-11.21-.79-33.49-1.02-67-1.52c-10.46-.15-18.26 8.01-21.57 17.08q-1.61 4.44-2.36 15.47-1.84 27.04-3.43 54.1Z"/><path fill="#fff" d="M774.26 248.43q.09-.92.11-2.75c.32-25.59.24-51.1.07-76.69-.13-18.05-17.31-15.24-29.94-14.91q-50.32 1.32-100.59 4.11-4.82.27-7.08 1.6c-8.69 5.1-9.03 27.82-8.27 37.06a.98.98 0 0 1-.17.64c-2.83 4.22-6.09 2.74-6.27-1.39-.6-13.14-.3-42.64 18.12-45.11q8.95-1.21 50.82-2.73 32.21-1.17 64.42-2.04 6.86-.18 10.72 1.04 13.95 4.41 14.34 20.72 1 42.94-.26 85.83-.43 14.68-.19 29.36.19 11.91-.62 16.12-1.55 8.03-6.07 14.62-1.23 1.8.93 1.56 37.61-4.08 73.51-7.9c4.01-.42 7.48-1.32 7.43 3.94q-.02 2.62-2.62 2.93-43.71 5.29-87.96 10.27c-20.94 2.35-42.5 2.29-63.56 2.93q-9.38.28-13.64-1.08c-10.07-3.2-16.59-12.33-19.36-22.24q-1.19-4.26-1.46-13.41c-.43-14.93-1.84-28.2 7.66-40.81 6.94-9.2 14.89-10.32 27-10.74q23.47-.83 46.93-1.48c11.16-.32 17 2.67 24.25 11.11q1.53 1.78 1.75-.56ZM672.83 293.3c.17 12.47 8.5 27.3 22.67 26.94q12.99-.32 56.44-1.8c14.48-.5 21.91-14.9 21.94-27.96.02-10.37.84-22.5-3.02-31.22-3.06-6.91-10.68-13.84-18.11-13.86q-12.04-.03-46.87 1.26-13.35.49-15.33.97c-11.99 2.9-18.04 16.14-17.93 27.63q.09 9.02.21 18.04Zm-423.49-143a1.01 1.01 0 0 1 .53 1.06q-15.05 89.52-30.1 178.95-.29 1.68.23 7.52c.62 6.93 8.85 5.4 13.46 5.22q85.8-3.3 171.6-6.45 6.12-.22 12.3-.05a1 1 0 0 1 .96.83q.53 3.27-1.54 5.65a1.01 1 18.9 0 1-.71.34q-90.86 3.45-181.7 6.84c-17.72.65-25.48 1.5-21.89-20.12q14.59-88 29.47-175.94c.71-4.18 3.38-5.89 7.39-3.85Z"/><path fill="#fff" d="M325.83 286.84c-22.56 2.38-26.15-21.66-25.19-38.08q1.59-27.06 3.43-54.1.75-11.03 2.36-15.47c3.31-9.07 11.11-17.23 21.57-17.08q33.51.5 67 1.52 8.66.26 11.21.79c20.28 4.24 18.41 25.73 17.37 41.34q-1.2 17.92-2.49 35.85c-1.06 14.71-1.29 23.4-10.95 32.45-4.21 3.94-8.21 4.6-13.83 5.23q-18.97 2.13-70.48 7.55Zm-18.12-40.33c-.93 14.31-.67 35.62 20.37 33.3q34.07-3.76 68.13-7.55c8.59-.96 14.02-8.05 16.04-15.77q.68-2.6 1.44-14.06 1.56-23.5 3.24-46.99c.64-8.93-1.29-19.24-10-23.17q-3.68-1.66-14.21-1.88-29.18-.61-58.38-1.49-7.22-.21-10.55 1.06c-8.14 3.11-12.36 13.03-12.81 21.29q-1.49 27.64-3.27 55.26Z"/><path fill="#5ab7b2" d="M328.08 279.81c-21.04 2.32-21.3-18.99-20.37-33.3q1.78-27.62 3.27-55.26c.45-8.26 4.67-18.18 12.81-21.29q3.33-1.27 10.55-1.06 29.2.88 58.38 1.49 10.53.22 14.21 1.88c8.71 3.93 10.64 14.24 10 23.17q-1.68 23.49-3.24 46.99-.76 11.46-1.44 14.06c-2.02 7.72-7.45 14.81-16.04 15.77q-34.06 3.79-68.13 7.55Zm21.08-31.82c.25 13.77 15.71 14.31 25.52 14.25 12.36-.08 28.37-1.72 29.74-17.59q1.64-18.96 3.38-37.91.75-8.15 0-10.96c-4.25-15.76-31.35-11.78-43.03-10.62-9.1.9-16.52 6.41-16.38 16.33q.34 23.28.77 46.5Z"/><path fill="#010101" d="M374.68 262.24c-9.81.06-25.27-.48-25.52-14.25q-.43-23.22-.77-46.5c-.14-9.92 7.28-15.43 16.38-16.33 11.68-1.16 38.78-5.14 43.03 10.62q.75 2.81 0 10.96-1.74 18.95-3.38 37.91c-1.37 15.87-17.38 17.51-29.74 17.59Z"/><path fill="#f04b24" d="M695.5 320.24c-14.17.36-22.5-14.47-22.67-26.94q-.12-9.02-.21-18.04c-.11-11.49 5.94-24.73 17.93-27.63q1.98-.48 15.33-.97 34.83-1.29 46.87-1.26c7.43.02 15.05 6.95 18.11 13.86 3.86 8.72 3.04 20.85 3.02 31.22-.03 13.06-7.46 27.46-21.94 27.96q-43.45 1.48-56.44 1.8Zm-.66-31.09c3.6 15.9 19.42 18.08 32.77 17.92 7.88-.09 17.36-.09 24.12-2.95 12.84-5.43 17.28-19.27 14.23-32.52-3.32-14.45-13.9-18.4-27.55-18.51-10.14-.07-23.15-.3-31.21 3.62-12.29 5.98-15.27 19.64-12.36 32.44Z"/><path fill="#010101" d="M727.61 307.07c-13.35.16-29.17-2.02-32.77-17.92-2.91-12.8.07-26.46 12.36-32.44 8.06-3.92 21.07-3.69 31.21-3.62 13.65.11 24.23 4.06 27.55 18.51 3.05 13.25-1.39 27.09-14.23 32.52-6.76 2.86-16.24 2.86-24.12 2.95Z"/><path fill="#f04b24" d="M759.52 535.95c-32.56-1.64-41.38-36.16-38.26-62.28q5.82-48.55 9.72-74.42.71-4.69 3.59-14.43c5.19-17.57 15.95-30.41 35.44-30.8q43.92-.88 112.34-2.68 12.94-.34 18.21 1.06c16.57 4.4 27.77 21.19 31.08 37.18 1.38 6.62 1.85 15.62 2.46 20.89q3.25 27.95 6.45 55.9 1.57 13.8.98 19.93c-2.38 24.71-19.99 46.89-46.47 47.35q-59.78 1.04-119.56 2.17-13.45.26-15.98.13Zm-22.4-77.93c-5.78 26.48 13.95 45.52 39.39 45.18q41.84-.56 83.68-1.24 8.88-.14 13.99-.81c23.56-3.07 38.37-24.36 32.44-47.54-3.7-14.44-7.8-28.72-10.99-43.29-3.79-17.32-14.55-33.24-32.97-35.86q-3.09-.44-19.97-.1-24.22.48-48.46 1.1-14.31.36-19.81 2.04c-15.29 4.67-24.24 18.96-27.42 34.25q-4.82 23.16-9.88 46.27Z"/><path fill="#5ab7b2" d="M670.5 595.18c-11.99.06-34.89-2.63-34.75-19.44q.9-106.73 1.34-212.8.02-3.32 3.33-3.56 3.23-.23 6.07-.03 31.25 2.18 62.5 4.47 4.02.3 5.59 2.86a1.03 1 33.7 0 1 .14.64q-9.5 86.55-18.8 173.11c-1.65 15.29 20.24 13.63 29.51 13.03q93.1-6.04 129.07-8.5 4.28-.29 6.41 2.94a1.02 1.01-63.1 0 1 .17.53l.81 42.57a1.02 1.01-17.7 0 1-.45.86q-3.04 2-7.88 2.05-91.53.78-183.06 1.27Zm-.18-33.93c-.85 16.47 6.71 15.93 20.12 15.41q73.69-2.83 147.37-5.83 3.4-.13 5.3-.56a1.01 1.01 0 0 0 .73-.64q1.37-3.81-3.09-3.65-79.38 2.98-158.74 6.13c-7.59.3-7.17-5.82-6.87-11.29q4.62-86.29 9.16-172.59c.14-2.73-.46-5.93-4.19-3.48a1 .99-13.7 0 0-.45.73q-.17 1.58-.41 6.02-4.56 84.87-8.93 169.75Z"/><path fill="#fff" d="M776.51 503.2c-25.44.34-45.17-18.7-39.39-45.18q5.06-23.11 9.88-46.27c3.18-15.29 12.13-29.58 27.42-34.25q5.5-1.68 19.81-2.04 24.24-.62 48.46-1.1 16.88-.34 19.97.1c18.42 2.62 29.18 18.54 32.97 35.86 3.19 14.57 7.29 28.85 10.99 43.29 5.93 23.18-8.88 44.47-32.44 47.54q-5.11.67-13.99.81-41.84.68-83.68 1.24Zm-33.36-32.17c2.08 16.63 19.14 24.77 34.61 24.48q45.15-.83 90.3-1.54c16.55-.26 32.22-10.97 33-28.14q.23-5.3-2.82-16.79c-3.39-12.76-7.02-25.37-9.96-38.24-2.72-11.89-10.14-23.81-22.2-27.56q-4.47-1.39-13.78-1.24-30.14.48-60.26 1.32-12.99.36-17.74 2.1c-11.92 4.35-18.4 15.64-20.88 27.66q-4.19 20.33-8.35 40.65-2.53 12.38-1.92 17.3Z"/><path fill="#5ab7b2" d="M309.36 572.41c-27.06-1.32-52.86-2.97-81.23-4.26-7.82-.35-30.3-2.8-30.08 10.37q.68 42 1.48 83.98c.15 8.39-9.46 8.97-14.9 6.06-11.26-6.05-22.8-12.48-34.56-17.47-6.54-2.78-9.04-7.9-8.84-15.02q2.86-100.82 5.96-201.64c.15-4.93-4.41-8.01-8.95-7.47q-29.51 3.51-59.03 6.88c-4.12.47-7.15 1.25-9.62-2.91q-1.62-2.72-1.11-6.4 2.71-19.79 5.73-39.54c.54-3.54 4.2-5.35 7.79-5.24q55.88 1.57 111.75 3.46c8.36.28 21.06-.66 31.66-.07 28.18 1.56 56.36 3.37 84.56 4.48 20.69.82 48.27 4.47 61 23.17 3.99 5.87 3.91 12.09 4.09 20.79q1.08 51.9 2.14 103.8.22 10.62-1.2 15.13c-7.41 23.64-47.77 22.82-66.64 21.9Zm40.7-139.9c.22-22.33-27.74-25.9-44.06-26.49-71.82-2.59-143.65-5.39-215.48-7.76q-4.2-.14-4.29 3.99-.06 2.64 3.02 2.76l78.06 3.14a1 1 0 0 1 .96 1.06q-5.83 103.8-11.53 206.79-.39 6.94 7.07 4.14a1.01 1.01 0 0 0 .65-.88l3.59-62.2a1.02 1.01.9 0 1 .98-.94c6.1-.15 13.2.34 18.27.35 44.64.09 88.83.82 134-.62 13.94-.45 25.33-8.17 25.99-22.78q2.28-50.27 2.77-100.56Z"/><path fill="#f04b24" d="M777.76 495.51c-15.47.29-32.53-7.85-34.61-24.48q-.61-4.92 1.92-17.3 4.16-20.32 8.35-40.65c2.48-12.02 8.96-23.31 20.88-27.66q4.75-1.74 17.74-2.1 30.12-.84 60.26-1.32 9.31-.15 13.78 1.24c12.06 3.75 19.48 15.67 22.2 27.56 2.94 12.87 6.57 25.48 9.96 38.24q3.05 11.49 2.82 16.79c-.78 17.17-16.45 27.88-33 28.14q-45.15.71-90.3 1.54Zm5.02-65.26c-.19 14.84-1.3 46.97 21.72 46.47q21.1-.47 42.18-1.31c10.08-.41 23.15-3.69 25.96-14.35q.7-2.65.61-13.13c-.13-16.01.93-39.95-16.14-46.32q-3.58-1.34-11.35-1.12-19.61.56-39.24 1.07-6.46.17-9.86 1.6c-10.5 4.44-13.75 16.35-13.88 27.09Z"/><path fill="#fff" d="M690.44 576.66c-13.41.52-20.97 1.06-20.12-15.41q4.37-84.88 8.93-169.75.24-4.44.41-6.02a1 .99-13.7 0 1 .45-.73c3.73-2.45 4.33.75 4.19 3.48q-4.54 86.3-9.16 172.59c-.3 5.47-.72 11.59 6.87 11.29q79.36-3.15 158.74-6.13 4.46-.16 3.09 3.65a1.01 1.01 0 0 1-.73.64q-1.9.43-5.3.56-73.68 3-147.37 5.83ZM306 406.02c16.32.59 44.28 4.16 44.06 26.49q-.49 50.29-2.77 100.56c-.66 14.61-12.05 22.33-25.99 22.78-45.17 1.44-89.36.71-134 .62-5.07-.01-12.17-.5-18.27-.35a1.02 1.01.9 0 0-.98.94l-3.59 62.2a1.01 1.01 0 0 1-.65.88q-7.46 2.8-7.07-4.14 5.7-102.99 11.53-206.79a1 1 0 0 0-.96-1.06l-78.06-3.14q-3.08-.12-3.02-2.76.09-4.13 4.29-3.99c71.83 2.37 143.66 5.17 215.48 7.76Zm36.36 27.74c.4-19.71-26.39-20.62-39.45-21.08q-62.79-2.21-125.73-4.16a1 .99-87.6 0 0-1.02.95l-7.68 138.93a1 1 0 0 0 .99 1.06q57.06.45 135.84.19c13.51-.05 33.39 1.65 34.18-17.9q1.82-45.24 2.87-97.99Z"/><path fill="#010101" d="M804.5 476.72c-23.02.5-21.91-31.63-21.72-46.47.13-10.74 3.38-22.65 13.88-27.09q3.4-1.43 9.86-1.6 19.63-.51 39.24-1.07 7.77-.22 11.35 1.12c17.07 6.37 16.01 30.31 16.14 46.32q.09 10.48-.61 13.13c-2.81 10.66-15.88 13.94-25.96 14.35q-21.08.84-42.18 1.31Z"/><path fill="#5ab7b2" d="M302.91 412.68c13.06.46 39.85 1.37 39.45 21.08q-1.05 52.75-2.87 97.99c-.79 19.55-20.67 17.85-34.18 17.9q-78.78.26-135.84-.19a1 1 0 0 1-.99-1.06l7.68-138.93a1 .99-87.6 0 1 1.02-.95q62.94 1.95 125.73 4.16Zm-65.09 107.17c.27 12.85 19.73 17.31 29.68 17.41q8.27.08 16.53-.03c12.19-.18 36.11.46 41.27-13.91q.9-2.49.78-7.87-.67-30.15-1.23-60.33-.12-6.51-1.58-9.53c-4.48-9.27-18.65-11.68-27.77-11.54q-14.9.24-29.73.67c-11.35.34-29.6 5.49-29.31 19.52q.67 32.8 1.36 65.61Z"/><path fill="#f04b24" d="M393.82 493.2c-4.6-.55-9.16-2.99-9.15-8.27.01-8.06-.8-17.65 1.31-25.15 7.73-27.38 36.24-44.56 63.29-47.3q8.97-.9 51.67-1.23c20.44-.16 47.05-1.24 60.82-1.12q31.79.29 48.34 26.8c7.23 11.59 7.9 20.55 9.29 36.41q4.47 51.17 8.98 102.34c.67 7.6.15 13.63-4.32 20-13.49 19.2-43.62 25.44-65.54 24.29q-59.5-3.1-119.01-6.3c-16.4-.88-31.87-9.37-35.8-26.1q-.93-3.98-1.33-18.76-.26-9.39-.37-18.81c-.37-32.38 27.25-38.81 53.13-39.63q22.8-.72 45.62-.8c13.57-.05 38.02-5.66 37.99-23.06-.01-5.26.46-10.49-1.37-14.86-6.02-14.32-27.04-14.13-40.47-14.12-13.14.01-26.86-.26-39.9 1.42q-7.87 1.02-14.47 5.36c-8.05 5.28-8.02 12.61-7.77 21.26q.07 2.44-1.91 3.88-4.1 2.98-8.36 3.18-25.29 1.22-30.67.57Zm182.3 36.62q-7.03-4.77-15.3-6.57-5.18-1.14-17.69-.95-37.85.57-75.69 1.35c-14.94.31-30.22 8.27-35.29 22.91-2.38 6.87-1.44 16.49-1.28 24.12q.33 14.71 11.77 23.68c13.86 10.87 30.17 8.66 46.68 9.14q31.84.93 63.68 1.46c22.67.37 36.51-13.61 35.74-36.26-.24-7.01-.1-13.85-.82-20.89-3.19-31.12-6.15-62.44-10.69-93.39-1.88-12.88-14.17-19.69-26.23-19.76q-60.37-.34-120.69 1.89c-22.3.83-31.78 21.92-32.56 41.37q-.1 2.44 2.26 3.06c4.88 1.31 5.76-1.68 6.16-5.78 1.4-14.4 8.26-31.07 24.83-31.7q52.25-1.97 109.95-1.74c17.44.07 26.55-.09 29.05 19.74q4.24 33.64 7.67 67.39.22 2.14-1.55.93Z"/><path fill="#010101" d="M267.5 537.26c-9.95-.1-29.41-4.56-29.68-17.41q-.69-32.81-1.36-65.61c-.29-14.03 17.96-19.18 29.31-19.52q14.83-.43 29.73-.67c9.12-.14 23.29 2.27 27.77 11.54q1.46 3.02 1.58 9.53.56 30.18 1.23 60.33.12 5.38-.78 7.87c-5.16 14.37-29.08 13.73-41.27 13.91q-8.26.11-16.53.03Z"/><path fill="#fff" d="M576.12 529.82q1.77 1.21 1.55-.93-3.43-33.75-7.67-67.39c-2.5-19.83-11.61-19.67-29.05-19.74q-57.7-.23-109.95 1.74c-16.57.63-23.43 17.3-24.83 31.7-.4 4.1-1.28 7.09-6.16 5.78q-2.36-.62-2.26-3.06c.78-19.45 10.26-40.54 32.56-41.37q60.32-2.23 120.69-1.89c12.06.07 24.35 6.88 26.23 19.76 4.54 30.95 7.5 62.27 10.69 93.39.72 7.04.58 13.88.82 20.89.77 22.65-13.07 36.63-35.74 36.26q-31.84-.53-63.68-1.46c-16.51-.48-32.82 1.73-46.68-9.14q-11.44-8.97-11.77-23.68c-.16-7.63-1.1-17.25 1.28-24.12 5.07-14.64 20.35-22.6 35.29-22.91q37.84-.78 75.69-1.35 12.51-.19 17.69.95 8.27 1.8 15.3 6.57Zm-136.77 50.44c5.49 12.39 18.08 15.84 30.52 16.2q34.28.98 68.56 1.78 14.65.35 19.25-.08c25.32-2.32 24.97-23.94 23.53-43.56q-.46-6.31-2.24-9.9c-4.98-10.02-17.05-15.51-27.72-15.31q-40.5.8-81 1.25c-14.92.16-32.68 7.44-32.96 25.1-.13 8.1-.92 17.78 2.06 24.52Z"/><path fill="#f04b24" d="M469.87 596.46c-12.44-.36-25.03-3.81-30.52-16.2-2.98-6.74-2.19-16.42-2.06-24.52.28-17.66 18.04-24.94 32.96-25.1q40.5-.45 81-1.25c10.67-.2 22.74 5.29 27.72 15.31q1.78 3.59 2.24 9.9c1.44 19.62 1.79 41.24-23.53 43.56q-4.6.43-19.25.08-34.28-.8-68.56-1.78Zm9.05-36.38c-1.06 18.76 21.71 23.75 35.57 23.8q18.04.07 35.98-1.15c12.04-.81 16.41-9.4 16.5-20.1.1-11.95-.42-23.17-15.22-24.67-10.55-1.07-24.04-.28-37.04.02-13.22.3-34.82 4.97-35.79 22.1Z"/><path fill="#010101" d="M514.49 583.88c-13.86-.05-36.63-5.04-35.57-23.8.97-17.13 22.57-21.8 35.79-22.1 13-.3 26.49-1.09 37.04-.02 14.8 1.5 15.32 12.72 15.22 24.67-.09 10.7-4.46 19.29-16.5 20.1q-17.94 1.22-35.98 1.15Z"/><path fill="#f04b24" d="M252.34 801.96c-23.11-2.76-38.11-18.94-40.53-41.86q-.5-4.74.19-16.2 3.3-54.55 6.52-109.1.63-10.64 2.34-15.87c7.1-21.72 30.51-31.57 52.08-32.2q33.05-.98 66.12-1.59 11.75-.22 19.85 1.32c24.17 4.61 36.52 22.82 38.14 46.57q3.87 56.63 7.56 113.28c1.9 29.03-12.58 51.73-42.33 56.06q-3.95.57-11.97.59-39.13.09-78.25-.49-17.64-.26-19.72-.51ZM257 776.7q2.31.57 4.69.61 41.88.66 85.61.69c10.89.01 20.26-9.96 24.27-19.23 4.89-11.34 6.45-24.26 6.56-36.52.22-22.52.32-45.06-2.63-67.75-2.08-16.01-7.94-34.99-28-34.79q-18.25.18-79.5 1.99-6.31.18-9.68 1.61c-9.58 4.08-14.78 14.44-17.47 23.97-5.35 18.96-7.42 37.22-9.24 57.65q-1.03 11.59-.77 19.68c.64 19.72 2.15 46.2 26.16 52.09Zm360.15-112.54a1.01 1-70.7 0 1-.37-.78c-.05-6.6-1.15-16.58 1.27-22.71 6.8-17.26 30.62-23.06 46.88-23.97q43.75-2.45 87.51-4.79c16.82-.9 35.16 3.91 45.76 17.14 6.18 7.72 5.1 14.85 4.57 26.87q-1.73 39.27-3.51 78.53c-.95 20.81-19.63 36.13-38.56 40.38q-5.65 1.27-15.51 1.17-33.72-.35-67.43-.92-17.06-.29-19.99-.68c-15.17-2.02-33.25-12.14-38.35-27.71q-1.13-3.45-1.22-9.47-.1-6.31-.49-16.21c-1.08-27.22 33.68-33.94 53.48-34.22q16.9-.23 33.81-.52c9.37-.16 25.73-4.89 26.74-16.26 2.62-29.59-22.11-28.25-42.99-27.23-8.77.43-20.51.64-22.35 10.45-1.19 6.39 2.03 13.12-8.47 13.4q-15.96.42-31.93.77-4.64.1-8.85-3.24Zm149.35 40.28q-8.05-7.87-18.25-9.19c-7.74-1-20.24-.07-25.96.02q-35.19.52-42.47.85-12.02.54-21.26 5.71c-12.11 6.76-11.63 19.66-11.14 31.81.49 11.95 9.99 21.43 20.69 24.56q5.31 1.55 17.09 1.37 18.19-.28 58.6-1.24c15.81-.38 31.29-10.47 31.37-27.32q.16-35.26-.67-70.49c-.36-15.13-1.49-26.95-16.41-31.85q-4.28-1.41-12.45-1.4-40.96.07-81.88 1.61-14.84.55-18.28 1.1c-12.12 1.92-14.59 13.75-14.64 24.03q-.03 6.17 6.07 4.09a1.01 1.01 0 0 0 .68-.97q-.13-6.65 1.66-13.38c1.61-6.09 4.76-7.79 11.1-8.04 28.05-1.07 60.66-.33 91.09-2.06q9.59-.54 13.55.62 11.6 3.41 12.26 17.75 1.02 22.56.95 51.7-.01 2.37-1.7.72Z"/><path fill="#fff" d="M257 776.7c-24.01-5.89-25.52-32.37-26.16-52.09q-.26-8.09.77-19.68c1.82-20.43 3.89-38.69 9.24-57.65 2.69-9.53 7.89-19.89 17.47-23.97q3.37-1.43 9.68-1.61 61.25-1.81 79.5-1.99c20.06-.2 25.92 18.78 28 34.79 2.95 22.69 2.85 45.23 2.63 67.75-.11 12.26-1.67 25.18-6.56 36.52-4.01 9.27-13.38 19.24-24.27 19.23q-43.73-.03-85.61-.69-2.38-.04-4.69-.61Zm-17.25-27.95c3.5 16.62 12.84 21.77 29 21.71q14.51-.06 77.38.34c20.9.13 25.2-31.93 25.33-46.3q.23-25.1-.5-50.19c-.36-12.56-1.27-42.03-16.03-47.27q-3.44-1.23-13.48-.98-37.35.91-74.71 1.75c-19.64.44-23.35 33.1-25.22 47.19-3.15 23.67-6.57 50.89-1.77 73.75Z"/><path fill="#5ab7b2" d="m553.5 849.54-36.27-.08q-41.8.3-83.64.46c-6.24.03-9.45-1.99-9.78-8.32q-1.65-31.89-3.2-63.79c-.55-11.25-1.38-22.47 11.47-27.07q59.68-21.35 119.43-42.45c9.03-3.19 8.99-14.13-1.52-13.83q-61.44 1.79-122.89 3.41c-8.73.24-12.92.55-13.81-9.01q-2.46-26.51-5.23-52.97c-.7-6.64 1.58-10.92 8.94-10.4q89.63 6.42 179.26 12.97c5.31.38 5.9 3.15 5.95 8.04q.25 25.74.82 51.5.08 3.64-.77 8.56c-1.82 10.5-7.39 13.34-17.19 18.82q-37.39 20.94-74.83 41.81c-10.11 5.64-8.08 16.46 3.99 16.09q36.23-1.09 72.46-1.94c7.27-.17 11.54 1.71 11.57 9.44q.1 22.42.5 44.81.12 6.49-.85 8.71c-1.97 4.58-6.48 5.35-11.44 5.19q-16.46-.53-32.97.05ZM426.88 661.98c5.68.52 13.07.64 17.11.83q92.66 4.31 112.58 5.08c4.11.16 9.06.57 11.72 3.79 3.06 3.71 2.54 16.44 2.41 23.66-.15 8.81.6 13.28-7.63 16.74q-54.76 23.05-109.59 45.98c-10.45 4.37-16.67 9.85-16.71 21.68-.02 5.63-.31 11.14-.59 16.75-.42 8.36.17 18.5 11.06 18.36q62.29-.81 124.57-1.67 3.83-.06 6.25-.19a1.01 1-87.5 0 0 .93-.86c.53-3.6.56-6.01-3.74-5.74q-3.93.25-10.25.28-33.85.18-99.63 1.1c-5.52.07-12.81.38-19.3.07q-3.11-.15-3.8-3.09-.58-2.47-.48-5.01.39-9.02.5-19.06.12-10.64 9.2-14.44 57.28-23.94 114.56-47.86 9.1-3.8 9.94-12.86.94-10.1-.12-26.87c-.6-9.68-4.32-16.9-14.88-17.4q-67.33-3.22-135.82-6.12a1.02 1 17.5 0 0-.88.45c-2.13 3.21-1.25 6.04 2.59 6.4Z"/><path fill="#f04b24" d="M268.75 770.46c-16.16.06-25.5-5.09-29-21.71-4.8-22.86-1.38-50.08 1.77-73.75 1.87-14.09 5.58-46.75 25.22-47.19q37.36-.84 74.71-1.75 10.04-.25 13.48.98c14.76 5.24 15.67 34.71 16.03 47.27q.73 25.09.5 50.19c-.13 14.37-4.43 46.43-25.33 46.3q-62.87-.4-77.38-.34Zm6-46.43c-1.18 10.59 1.87 21.11 14.77 20.89q19.38-.32 38.79-1.29c13.62-.67 22.01-4.59 22.05-20.16.06-22.05-.23-40.05-.89-59.96-.39-11.97-7.52-19.36-19.72-19.72q-12.71-.38-26.8.67c-7.57.57-15.74 3.78-19.36 10.9q-1.31 2.59-2.01 8.64-3.48 30.01-6.83 60.03Z"/><path fill="#fff" d="M768.2 703.72q.07-29.14-.95-51.7-.66-14.34-12.26-17.75-3.96-1.16-13.55-.62c-30.43 1.73-63.04.99-91.09 2.06-6.34.25-9.49 1.95-11.1 8.04q-1.79 6.73-1.66 13.38a1.01 1.01 0 0 1-.68.97q-6.1 2.08-6.07-4.09c.05-10.28 2.52-22.11 14.64-24.03q3.44-.55 18.28-1.1 40.92-1.54 81.88-1.61 8.17-.01 12.45 1.4c14.92 4.9 16.05 16.72 16.41 31.85q.83 35.23.67 70.49c-.08 16.85-15.56 26.94-31.37 27.32q-40.41.96-58.6 1.24-11.78.18-17.09-1.37c-10.7-3.13-20.2-12.61-20.69-24.56-.49-12.15-.97-25.05 11.14-31.81q9.24-5.17 21.26-5.71 7.28-.33 42.47-.85c5.72-.09 18.22-1.02 25.96-.02q10.2 1.32 18.25 9.19 1.69 1.65 1.7-.72Zm-113.88 29.46c.58 10.01 8.72 17.38 18.08 19.63q3.4.82 11.77.63 29.69-.69 59.39-1.07c32.48-.42 33.15-44.76 3.85-50.8-3.2-.66-7.52-.6-10.71-.53q-28.7.59-57.38 1.38-3.66.11-10.27 1.9c-15.47 4.18-15.51 15.42-14.73 28.86Z"/><path fill="#010101" d="M289.52 744.92c-12.9.22-15.95-10.3-14.77-20.89q3.35-30.02 6.83-60.03.7-6.05 2.01-8.64c3.62-7.12 11.79-10.33 19.36-10.9q14.09-1.05 26.8-.67c12.2.36 19.33 7.75 19.72 19.72.66 19.91.95 37.91.89 59.96-.04 15.57-8.43 19.49-22.05 20.16q-19.41.97-38.79 1.29Z"/><path fill="#fff" d="M426.88 661.98c-3.84-.36-4.72-3.19-2.59-6.4a1.02 1 17.5 0 1 .88-.45q68.49 2.9 135.82 6.12c10.56.5 14.28 7.72 14.88 17.4q1.06 16.77.12 26.87-.84 9.06-9.94 12.86-57.28 23.92-114.56 47.86-9.08 3.8-9.2 14.44-.11 10.04-.5 19.06-.1 2.54.48 5.01.69 2.94 3.8 3.09c6.49.31 13.78 0 19.3-.07q65.78-.92 99.63-1.1 6.32-.03 10.25-.28c4.3-.27 4.27 2.14 3.74 5.74a1.01 1-87.5 0 1-.93.86q-2.42.13-6.25.19-62.28.86-124.57 1.67c-10.89.14-11.48-10-11.06-18.36.28-5.61.57-11.12.59-16.75.04-11.83 6.26-17.31 16.71-21.68q54.83-22.93 109.59-45.98c8.23-3.46 7.48-7.93 7.63-16.74.13-7.22.65-19.95-2.41-23.66-2.66-3.22-7.61-3.63-11.72-3.79q-19.92-.77-112.58-5.08c-4.04-.19-11.43-.31-17.11-.83Z"/><path fill="#f04b24" d="M672.4 752.81c-9.36-2.25-17.5-9.62-18.08-19.63-.78-13.44-.74-24.68 14.73-28.86q6.61-1.79 10.27-1.9 28.68-.79 57.38-1.38c3.19-.07 7.51-.13 10.71.53 29.3 6.04 28.63 50.38-3.85 50.8q-29.7.38-59.39 1.07-8.37.19-11.77-.63Zm14.89-24.22c1.08 11.5 15.06 15.83 24.73 15.84 13.17.01 31.47 1.58 42.78-5.61 9.09-5.79 9.47-19.59.63-25.53q-7.28-4.89-17.5-5.01-15.69-.2-31.36.71c-11.53.67-20.49 6.78-19.28 19.6Z"/><path fill="#010101" d="M712.02 744.43c-9.67-.01-23.65-4.34-24.73-15.84-1.21-12.82 7.75-18.93 19.28-19.6q15.67-.91 31.36-.71 10.22.12 17.5 5.01c8.84 5.94 8.46 19.74-.63 25.53-11.31 7.19-29.61 5.62-42.78 5.61Z"/><path fill="#231f20" d="M620.99 849.45q13.77.12 27.54.07 6.33-.03 9.79 1.24c15.23 5.59 19.27 26.56 15.6 40.69-5.94 22.89-12.65 46.09-17.02 69.33-1.87 9.94-7.39 20.41-17.46 23.73q-4.07 1.35-14.86.94-189.61-7.04-256.58-9.67c-12.08-.48-20.02-10.55-23.26-21.25q-1.43-4.72-1.46-14.35-.15-42.47-.01-53.68c.15-12.12 6.3-26.76 18.57-31.17 3.67-1.32 7.53-.95 11.47-1.28 9.59-.8 19.54-.3 29.21-.63 23.92-.27 47.85-.46 71.78-1.19q14.93-.46 29.88.16 6.88.29 13.05-2.93l36.27.08q.34 1.39 1.82 1.42 7.1.12 30.85.02c2.04-.01 5.16.51 7.85-.18q2.64-.67 4.08-.7 11.47-.18 22.89-.65ZM357.7 945.8c-.01 3.91 4.73 12.82 9.05 12.98q132.24 5.04 264.5 10.02c7.67.28 9.85-4.86 11.44-11.79 5.23-22.84 11.11-45.47 16.83-68.19q1.56-6.17 1.35-9.4c-.37-5.68-3.09-13.11-10.03-13.15-20.82-.12-41.51.14-62.59.94-15.56.59-42.46-.25-64.93.75-24.16 1.08-41.96 1.26-69.19.72a1.07.95 26.3 0 0-.54.15q-.72.44-1.59.46-38.96 1.15-77.94 1.23c-2.81.01-7.99.26-10.58 2.51-4.22 3.67-5.75 9.68-5.75 14.97q.04 28.92-.03 57.8Z"/><path fill="#f04b24" d="M366.75 958.78c-4.32-.16-9.06-9.07-9.05-12.98q.07-28.88.03-57.8c0-5.29 1.53-11.3 5.75-14.97 2.59-2.25 7.77-2.5 10.58-2.51q38.98-.08 77.94-1.23.87-.02 1.59-.46a1.07.95 26.3 0 1 .54-.15c27.23.54 45.03.36 69.19-.72 22.47-1 49.37-.16 64.93-.75 21.08-.8 41.77-1.06 62.59-.94 6.94.04 9.66 7.47 10.03 13.15q.21 3.23-1.35 9.4c-5.72 22.72-11.6 45.35-16.83 68.19-1.59 6.93-3.77 12.07-11.44 11.79q-132.26-4.98-264.5-10.02Zm53.54-71.03-.01 61.63a1 .99 88.4 0 0 1.05 1q4.76-.26 9.58-.3c7.46-.08 12.83-2.97 15.02-10.56 1.53-5.32 1.99-14.45-1.38-19.27q-1.38-1.98-3.69-3.59a1 1 0 0 1-.03-1.62q.93-.7 1.87-1.59c3.58-3.36 4.27-10.88 3.76-15.45q.73-4.04-.45-6.42-.94-1.9-2.33-3.5-3.82-4.4-9.67-4.85-6.43-.48-12.88.14a1 .99-3.4 0 0-.9 1.01l.06 3.37Zm124.44 54.46-11.54.04a1 .99-10.3 0 1-.95-.65q-.17-.48.05-1.1l.42-56.18a1.01 1-89.1 0 0-.97-1.01l-7.92-.23a1 1 0 0 0-1.03 1l.17 65.89a1.01 1 .3 0 0 1 1l21.57.07a.99.99 0 0 0 1-.97l.17-6.65a1 .99-84.7 0 0-.83-1.01l-1.14-.2Zm-48.35-21.78q3.58-1.36 4.31 2.06 2.9 13.47 5.48 26.95a1.01 1-5.6 0 0 .99.81h6.71a1 1 0 0 0 .98-1.21l-6.59-30.24a.99.98 63.1 0 1 .3-.94c6.66-6.15 7.41-18.44 3.86-26.32-2.46-5.45-6.26-6.96-11.99-7.14q-5.7-.18-11.46.04a1.01 1-86.5 0 0-.95.85q-.31 1.98-.29 4.71.13 20.28-.05 59.34a1 1 0 0 0 1.02 1l6.12-.12a1 .99 89.7 0 0 .98-1l-.06-27.85a1.01 1.01 0 0 1 .64-.94Zm-31.6 21.82a.31.31 0 0 1-.31-.31l-.28-22.23a.31.31 0 0 1 .32-.32l10.76.15a.31.31 0 0 0 .32-.32l-.04-7.66a.31.31 0 0 0-.31-.31h-10.69a.31.31 0 0 1-.31-.31l.03-19.04a.31.31 0 0 1 .31-.31l14.01-.13a.31.31 0 0 0 .3-.3l.07-6.35a.31.31 0 0 0-.31-.31h-21.77a.31.31 0 0 0-.31.31l-.05 65.15a.31.31 0 0 0 .31.31l23.24-.07a.31.31 0 0 0 .31-.31l-.08-7.33a.31.31 0 0 0-.31-.31h-15.21Zm96.95-57.4a.33.33 0 0 0-.33-.33h-7.56a.33.33 0 0 0-.33.33v64.86a.33.33 0 0 0 .33.33h7.56a.33.33 0 0 0 .33-.33v-64.86Zm19.22 22.76 12.93 41.84a1 1 0 0 0 .9.71l4.42.25a1 .99 1.1 0 0 1.06-1.02q-.76-31.92-.44-63.86a1 1 0 0 0-1-1.01l-5.01-.03a1 1 0 0 0-1 .98q-.4 14.76-.28 29.53 0 .11.19 2.36.05.6.01 1.2-.21 3.32-1.24.16l-10.9-33.49a1.02 1 80.9 0 0-.94-.69l-5.88-.06a1.01 1-89.1 0 0-1.01.99q-.43 31.15-.21 62.3c0 .49-.1.72-.13 1.17a1 .99 1.9 0 0 1 1.06h5.83a1 1 0 0 0 1-1v-40.96a.41.41 0 0 1 .12-.29l.23-.22a.21.21 0 0 1 .35.08Z"/><path fill="#f04b24" d="M446.46 898c-1.01-15.76-13.86-13.27-24.86-13.58a1 .99-85.6 0 0-1.02.88l-.29 2.45-.06-3.37a1 .99-3.4 0 1 .9-1.01q6.45-.62 12.88-.14 5.85.45 9.67 4.85 1.39 1.6 2.33 3.5 1.18 2.38.45 6.42Zm85.83 42.5-.3-55.06a1 1 0 0 0-1.02-.99l-5.72.07a1 1 0 0 0-.99 1q-.02 30.77-.01 61.57c.01 1.58-1.64 3.13 1.69 3.08q9.11-.15 18.33-.23a1.01 1-86.3 0 0 .98-.87q.49-3.49-.52-6.86l1.14.2a1 .99-84.7 0 1 .83 1.01l-.17 6.65a.99.99 0 0 1-1 .97l-21.57-.07a1.01 1 .3 0 1-1-1l-.17-65.89a1 1 0 0 1 1.03-1l7.92.23a1.01 1-89.1 0 1 .97 1.01l-.42 56.18Z"/><path fill="#231f20" d="M446.46 898c.51 4.57-.18 12.09-3.76 15.45q-.94.89-1.87 1.59a1 1 0 0 0 .03 1.62q2.31 1.61 3.69 3.59c3.37 4.82 2.91 13.95 1.38 19.27-2.19 7.59-7.56 10.48-15.02 10.56q-4.82.04-9.58.3a1 .99 88.4 0 1-1.05-1l.01-61.63.29-2.45a1 .99-85.6 0 1 1.02-.88c11 .31 23.85-2.18 24.86 13.58Zm-17.24 14.4c12.72 3.06 12.64-24.04.04-20.74a1.01 1 82.5 0 0-.74.97l-.07 18.79a1.01 1.01 0 0 0 .77.98Zm.29 30.02q7.5-.02 9.08-4.95c1.97-6.15.46-21.1-9.4-17.91a1.01 1.01 0 0 0-.69.96v20.9a1.01 1 0 0 0 1.01 1Zm66.23-21.05.06 27.85a1 .99 89.7 0 1-.98 1l-6.12.12a1 1 0 0 1-1.02-1q.18-39.06.05-59.34-.02-2.73.29-4.71a1.01 1-86.5 0 1 .95-.85q5.76-.22 11.46-.04c5.73.18 9.53 1.69 11.99 7.14 3.55 7.88 2.8 20.17-3.86 26.32a.99.98 63.1 0 0-.3.94l6.59 30.24a1 1 0 0 1-.98 1.21h-6.71a1.01 1-5.6 0 1-.99-.81q-2.58-13.48-5.48-26.95-.73-3.42-4.31-2.06a1.01 1.01 0 0 0-.64.94Zm6.82-28.93q-2.31-1.3-5.81-.71a1.01 1 85.5 0 0-.83.98l-.23 18.91a1.01 1-82.8 0 0 .76.99c11.77 2.85 11.46-17.16 6.11-20.17Zm29.73 48.06q-.22.62-.05 1.1a1 .99-10.3 0 0 .95.65l11.54-.04q1.01 3.37.52 6.86a1.01 1-86.3 0 1-.98.87q-9.22.08-18.33.23c-3.33.05-1.68-1.5-1.69-3.08q-.01-30.8.01-61.57a1 1 0 0 1 .99-1l5.72-.07a1 1 0 0 1 1.02.99l.3 55.06Zm-67.51 1.75h15.21a.31.31 0 0 1 .31.31l.08 7.33a.31.31 0 0 1-.31.31l-23.24.07a.31.31 0 0 1-.31-.31l.05-65.15a.31.31 0 0 1 .31-.31h21.77a.31.31 0 0 1 .31.31l-.07 6.35a.31.31 0 0 1-.3.3l-14.01.13a.31.31 0 0 0-.31.31l-.03 19.04a.31.31 0 0 0 .31.31h10.69a.31.31 0 0 1 .31.31l.04 7.66a.31.31 0 0 1-.32.32l-10.76-.15a.31.31 0 0 0-.32.32l.28 22.23a.31.31 0 0 0 .31.31Z"/><rect width="8.22" height="65.52" x="553.51" y="884.52" fill="#231f20" rx=".33"/><path fill="#231f20" d="m580.6 907.53-.23.22a.41.41 0 0 0-.12.29V949a1 1 0 0 1-1 1h-5.83a1 .99 1.9 0 1-1-1.06c.03-.45.13-.68.13-1.17q-.22-31.15.21-62.3a1.01 1-89.1 0 1 1.01-.99l5.88.06a1.02 1 80.9 0 1 .94.69l10.9 33.49q1.03 3.16 1.24-.16.04-.6-.01-1.2-.19-2.25-.19-2.36-.12-14.77.28-29.53a1 1 0 0 1 1-.98l5.01.03a1 1 0 0 1 1 1.01q-.32 31.94.44 63.86a1 .99 1.1 0 1-1.06 1.02l-4.42-.25a1 1 0 0 1-.9-.71l-12.93-41.84a.21.21 0 0 0-.35-.08Z"/><path fill="#f04b24" d="M429.26 891.66c12.6-3.3 12.68 23.8-.04 20.74a1.01 1.01 0 0 1-.77-.98l.07-18.79a1.01 1 82.5 0 1 .74-.97Zm73.3.78c5.35 3.01 5.66 23.02-6.11 20.17a1.01 1-82.8 0 1-.76-.99l.23-18.91a1.01 1 85.5 0 1 .83-.98q3.5-.59 5.81.71Zm-73.05 49.98a1.01 1 0 0 1-1.01-1v-20.9a1.01 1.01 0 0 1 .69-.96c9.86-3.19 11.37 11.76 9.4 17.91q-1.58 4.93-9.08 4.95Z"/></svg>